<?xml version="1.0" standalone="no"?>
<!DOCTYPE svg PUBLIC "-//W3C//DTD SVG 1.1//EN" "http://www.w3.org/Graphics/SVG/1.1/DTD/svg11.dtd">
<svg width="84mm" height="84mm" viewBox="-42 -42 84 84" xmlns="http://www.w3.org/2000/svg" version="1.1">
<title>Splinter 65 prop guard</title>
<path d="
M 23.1614,41.3988 L 24.0256,41.3704 L 24.0493,41.369 L 24.9122,41.2983 L 24.9357,41.2958 L 25.7949,41.1828
 L 25.8183,41.1791 L 26.6714,41.0242 L 26.6947,41.0194 L 27.54,40.823 L 27.563,40.817 L 28.3981,40.5796
 L 28.4213,40.5723 L 29.2442,40.2944 L 29.267,40.2861 L 30.0758,39.9684 L 30.0981,39.9591 L 30.8913,39.6022
 L 30.9132,39.5917 L 31.6883,39.1968 L 31.7096,39.1853 L 32.4653,38.7529 L 32.4859,38.7404 L 33.2202,38.2718
 L 33.2402,38.2584 L 33.9508,37.755 L 33.9702,37.7405 L 34.6565,37.2027 L 34.6747,37.1877 L 35.3341,36.6176
 L 35.352,36.6013 L 35.983,36.0001 L 36.0001,35.983 L 36.6013,35.352 L 36.6176,35.3341 L 37.1877,34.6747
 L 37.2027,34.6565 L 37.7405,33.9702 L 37.755,33.9508 L 38.2584,33.2402 L 38.2718,33.2202 L 38.7404,32.4859
 L 38.7529,32.4653 L 39.1853,31.7096 L 39.1968,31.6883 L 39.5917,30.9132 L 39.6022,30.8913 L 39.9591,30.0981
 L 39.9684,30.0758 L 40.2861,29.267 L 40.2944,29.2442 L 40.5723,28.4213 L 40.5796,28.3981 L 40.817,27.563
 L 40.823,27.54 L 41.0194,26.6947 L 41.0242,26.6714 L 41.1791,25.8183 L 41.1828,25.7949 L 41.2958,24.9357
 L 41.2983,24.9122 L 41.369,24.0493 L 41.3704,24.0256 L 41.3988,23.1614 L 41.399,23.1367 L 41.3849,22.2737
 L 41.3839,22.2489 L 41.3275,21.3881 L 41.3253,21.3636 L 41.2266,20.5069 L 41.2233,20.4831 L 41.0827,19.6332
 L 41.078,19.6088 L 40.8958,18.7679 L 40.8899,18.7435 L 40.6666,17.9137 L 40.6595,17.8895 L 40.3955,17.0723
 L 40.3872,17.0485 L 40.0833,16.2458 L 40.0737,16.2223 L 39.7305,15.4362 L 39.72,15.4137 L 39.3382,14.6457
 L 39.3267,14.624 L 38.9073,13.8762 L 38.8944,13.8545 L 38.4388,13.1292 L 38.4249,13.1083 L 37.9337,12.4068
 L 37.919,12.3868 L 37.3933,11.7103 L 37.3776,11.6911 L 37.2974,11.598 L 37.2663,11.56 L 37.2372,11.5205
 L 37.2099,11.4797 L 37.1848,11.4376 L 37.1617,11.3943 L 37.1407,11.3499 L 37.122,11.3045 L 37.1055,11.2583
 L 37.0925,11.2155 L 36.484,9.04391 L 36.4745,9.00735 L 35.9403,6.78029 L 35.9291,6.72713 L 35.5268,4.52982
 L 35.5169,4.46352 L 35.2673,2.28452 L 35.2629,2.23564 L 35.2616,2.20966 L 35.177,0.0389404 L 35.1763,-0.0101318
 L 35.177,-0.0389404 L 35.2616,-2.20966 L 35.2647,-2.25864 L 35.2673,-2.28452 L 35.5169,-4.46352 L 35.5268,-4.52982
 L 35.9291,-6.72713 L 35.9403,-6.78029 L 36.4745,-9.00735 L 36.484,-9.04391 L 37.0925,-11.2155 L 37.1069,-11.2625
 L 37.1236,-11.3086 L 37.1425,-11.3539 L 37.1637,-11.3982 L 37.1869,-11.4414 L 37.2123,-11.4834 L 37.2397,-11.5242
 L 37.2691,-11.5635 L 37.2974,-11.598 L 37.3776,-11.6911 L 37.3933,-11.7103 L 37.919,-12.3868 L 37.9337,-12.4068
 L 38.4249,-13.1083 L 38.4388,-13.1292 L 38.8944,-13.8545 L 38.9073,-13.8762 L 39.3267,-14.624 L 39.3382,-14.6457
 L 39.72,-15.4137 L 39.7305,-15.4362 L 40.0737,-16.2223 L 40.0833,-16.2458 L 40.3872,-17.0485 L 40.3955,-17.0723
 L 40.6595,-17.8895 L 40.6666,-17.9137 L 40.8899,-18.7435 L 40.8958,-18.7679 L 41.078,-19.6088 L 41.0827,-19.6332
 L 41.2233,-20.4831 L 41.2266,-20.5069 L 41.3253,-21.3636 L 41.3275,-21.3881 L 41.3839,-22.2489 L 41.3849,-22.2737
 L 41.399,-23.1367 L 41.3988,-23.1614 L 41.3704,-24.0256 L 41.369,-24.0493 L 41.2983,-24.9122 L 41.2958,-24.9357
 L 41.1828,-25.7949 L 41.1791,-25.8183 L 41.0242,-26.6714 L 41.0194,-26.6947 L 40.823,-27.54 L 40.817,-27.563
 L 40.5796,-28.3981 L 40.5723,-28.4213 L 40.2944,-29.2442 L 40.2861,-29.267 L 39.9684,-30.0758 L 39.9591,-30.0981
 L 39.6022,-30.8913 L 39.5917,-30.9132 L 39.1968,-31.6883 L 39.1853,-31.7096 L 38.7529,-32.4653 L 38.7404,-32.4859
 L 38.2718,-33.2202 L 38.2584,-33.2402 L 37.755,-33.9508 L 37.7405,-33.9702 L 37.2027,-34.6565 L 37.1877,-34.6747
 L 36.6176,-35.3341 L 36.6013,-35.352 L 36.0001,-35.983 L 35.983,-36.0001 L 35.352,-36.6013 L 35.3341,-36.6176
 L 34.6747,-37.1877 L 34.6565,-37.2027 L 33.9702,-37.7405 L 33.9508,-37.755 L 33.2402,-38.2584 L 33.2202,-38.2718
 L 32.4859,-38.7404 L 32.4653,-38.7529 L 31.7096,-39.1853 L 31.6883,-39.1968 L 30.9132,-39.5917 L 30.8913,-39.6022
 L 30.0981,-39.9591 L 30.0758,-39.9684 L 29.267,-40.2861 L 29.2442,-40.2944 L 28.4213,-40.5723 L 28.3981,-40.5796
 L 27.563,-40.817 L 27.54,-40.823 L 26.6947,-41.0194 L 26.6714,-41.0242 L 25.8183,-41.1791 L 25.7949,-41.1828
 L 24.9357,-41.2958 L 24.9122,-41.2983 L 24.0493,-41.369 L 24.0256,-41.3704 L 23.1614,-41.3988 L 23.1367,-41.399
 L 22.2737,-41.3849 L 22.2489,-41.3839 L 21.3881,-41.3275 L 21.3636,-41.3253 L 20.5069,-41.2266 L 20.4831,-41.2233
 L 19.6332,-41.0827 L 19.6088,-41.078 L 18.7679,-40.8958 L 18.7435,-40.8899 L 17.9137,-40.6666 L 17.8895,-40.6595
 L 17.0723,-40.3955 L 17.0485,-40.3872 L 16.2458,-40.0833 L 16.2223,-40.0737 L 15.4362,-39.7305 L 15.4137,-39.72
 L 14.6457,-39.3382 L 14.624,-39.3267 L 13.8762,-38.9073 L 13.8545,-38.8944 L 13.1292,-38.4388 L 13.1083,-38.4249
 L 12.4068,-37.9337 L 12.3868,-37.919 L 11.7103,-37.3933 L 11.6911,-37.3776 L 11.598,-37.2974 L 11.56,-37.2663
 L 11.5205,-37.2372 L 11.4797,-37.2099 L 11.4376,-37.1848 L 11.3943,-37.1617 L 11.3499,-37.1407 L 11.3045,-37.122
 L 11.2583,-37.1055 L 11.2155,-37.0925 L 9.04391,-36.484 L 9.00735,-36.4745 L 6.78029,-35.9403 L 6.72713,-35.9291
 L 4.52982,-35.5268 L 4.46352,-35.5169 L 2.28452,-35.2673 L 2.23564,-35.2629 L 2.20966,-35.2616 L 0.0389404,-35.177
 L -0.0101318,-35.1763 L -0.0389404,-35.177 L -2.20966,-35.2616 L -2.25864,-35.2647 L -2.28452,-35.2673 L -4.46352,-35.5169
 L -4.52982,-35.5268 L -6.72713,-35.9291 L -6.78029,-35.9403 L -9.00735,-36.4745 L -9.04391,-36.484 L -11.2155,-37.0925
 L -11.2625,-37.1069 L -11.3086,-37.1236 L -11.3539,-37.1425 L -11.3982,-37.1637 L -11.4414,-37.1869 L -11.4834,-37.2123
 L -11.5242,-37.2397 L -11.5635,-37.2691 L -11.598,-37.2974 L -11.6911,-37.3776 L -11.7103,-37.3933 L -12.3868,-37.919
 L -12.4068,-37.9337 L -13.1083,-38.4249 L -13.1292,-38.4388 L -13.8545,-38.8944 L -13.8762,-38.9073 L -14.624,-39.3267
 L -14.6457,-39.3382 L -15.4137,-39.72 L -15.4362,-39.7305 L -16.2223,-40.0737 L -16.2458,-40.0833 L -17.0485,-40.3872
 L -17.0723,-40.3955 L -17.8895,-40.6595 L -17.9137,-40.6666 L -18.7435,-40.8899 L -18.7679,-40.8958 L -19.6088,-41.078
 L -19.6332,-41.0827 L -20.4831,-41.2233 L -20.5069,-41.2266 L -21.3636,-41.3253 L -21.3881,-41.3275 L -22.2489,-41.3839
 L -22.2737,-41.3849 L -23.1367,-41.399 L -23.1614,-41.3988 L -24.0256,-41.3704 L -24.0493,-41.369 L -24.9122,-41.2983
 L -24.9357,-41.2958 L -25.7949,-41.1828 L -25.8183,-41.1791 L -26.6714,-41.0242 L -26.6947,-41.0194 L -27.54,-40.823
 L -27.563,-40.817 L -28.3981,-40.5796 L -28.4213,-40.5723 L -29.2442,-40.2944 L -29.267,-40.2861 L -30.0758,-39.9684
 L -30.0981,-39.9591 L -30.8913,-39.6022 L -30.9132,-39.5917 L -31.6883,-39.1968 L -31.7096,-39.1853 L -32.4653,-38.7529
 L -32.4859,-38.7404 L -33.2202,-38.2718 L -33.2402,-38.2584 L -33.9508,-37.755 L -33.9702,-37.7405 L -34.6565,-37.2027
 L -34.6747,-37.1877 L -35.3341,-36.6176 L -35.352,-36.6013 L -35.983,-36.0001 L -36.0001,-35.983 L -36.6013,-35.352
 L -36.6176,-35.3341 L -37.1877,-34.6747 L -37.2027,-34.6565 L -37.7405,-33.9702 L -37.755,-33.9508 L -38.2584,-33.2402
 L -38.2718,-33.2202 L -38.7404,-32.4859 L -38.7529,-32.4653 L -39.1853,-31.7096 L -39.1968,-31.6883 L -39.5917,-30.9132
 L -39.6022,-30.8913 L -39.9591,-30.0981 L -39.9684,-30.0758 L -40.2861,-29.267 L -40.2944,-29.2442 L -40.5723,-28.4213
 L -40.5796,-28.3981 L -40.817,-27.563 L -40.823,-27.54 L -41.0194,-26.6947 L -41.0242,-26.6714 L -41.1791,-25.8183
 L -41.1828,-25.7949 L -41.2958,-24.9357 L -41.2983,-24.9122 L -41.369,-24.0493 L -41.3704,-24.0256 L -41.3988,-23.1614
 L -41.399,-23.1367 L -41.3849,-22.2737 L -41.3839,-22.2489 L -41.3275,-21.3881 L -41.3253,-21.3636 L -41.2266,-20.5069
 L -41.2233,-20.4831 L -41.0827,-19.6332 L -41.078,-19.6088 L -40.8958,-18.7679 L -40.8899,-18.7435 L -40.6666,-17.9137
 L -40.6595,-17.8895 L -40.3955,-17.0723 L -40.3872,-17.0485 L -40.0833,-16.2458 L -40.0737,-16.2223 L -39.7305,-15.4362
 L -39.72,-15.4137 L -39.3382,-14.6457 L -39.3267,-14.624 L -38.9073,-13.8762 L -38.8944,-13.8545 L -38.4388,-13.1292
 L -38.4249,-13.1083 L -37.9337,-12.4068 L -37.919,-12.3868 L -37.3933,-11.7103 L -37.3776,-11.6911 L -37.2974,-11.598
 L -37.2663,-11.56 L -37.2372,-11.5205 L -37.2099,-11.4797 L -37.1848,-11.4376 L -37.1617,-11.3943 L -37.1407,-11.3499
 L -37.122,-11.3045 L -37.1055,-11.2583 L -37.0925,-11.2155 L -36.484,-9.04391 L -36.4745,-9.00735 L -35.9403,-6.78029
 L -35.9291,-6.72713 L -35.5268,-4.52982 L -35.5169,-4.46352 L -35.2673,-2.28452 L -35.2629,-2.23564 L -35.2616,-2.20966
 L -35.177,-0.0389404 L -35.1763,0.0101318 L -35.177,0.0389404 L -35.2616,2.20966 L -35.2647,2.25864 L -35.2673,2.28452
 L -35.5169,4.46352 L -35.5268,4.52982 L -35.9291,6.72713 L -35.9403,6.78029 L -36.4745,9.00735 L -36.484,9.04391
 L -37.0925,11.2155 L -37.1069,11.2625 L -37.1236,11.3086 L -37.1425,11.3539 L -37.1637,11.3982 L -37.1869,11.4414
 L -37.2123,11.4834 L -37.2397,11.5242 L -37.2691,11.5635 L -37.2974,11.598 L -37.3776,11.6911 L -37.3933,11.7103
 L -37.919,12.3868 L -37.9337,12.4068 L -38.4249,13.1083 L -38.4388,13.1292 L -38.8944,13.8545 L -38.9073,13.8762
 L -39.3267,14.624 L -39.3382,14.6457 L -39.72,15.4137 L -39.7305,15.4362 L -40.0737,16.2223 L -40.0833,16.2458
 L -40.3872,17.0485 L -40.3955,17.0723 L -40.6595,17.8895 L -40.6666,17.9137 L -40.8899,18.7435 L -40.8958,18.7679
 L -41.078,19.6088 L -41.0827,19.6332 L -41.2233,20.4831 L -41.2266,20.5069 L -41.3253,21.3636 L -41.3275,21.3881
 L -41.3839,22.2489 L -41.3849,22.2737 L -41.399,23.1367 L -41.3988,23.1614 L -41.3704,24.0256 L -41.369,24.0493
 L -41.2983,24.9122 L -41.2958,24.9357 L -41.1828,25.7949 L -41.1791,25.8183 L -41.0242,26.6714 L -41.0194,26.6947
 L -40.823,27.54 L -40.817,27.563 L -40.5796,28.3981 L -40.5723,28.4213 L -40.2944,29.2442 L -40.2861,29.267
 L -39.9684,30.0758 L -39.9591,30.0981 L -39.6022,30.8913 L -39.5917,30.9132 L -39.1968,31.6883 L -39.1853,31.7096
 L -38.7529,32.4653 L -38.7404,32.4859 L -38.2718,33.2202 L -38.2584,33.2402 L -37.755,33.9508 L -37.7405,33.9702
 L -37.2027,34.6565 L -37.1877,34.6747 L -36.6176,35.3341 L -36.6013,35.352 L -36.0001,35.983 L -35.983,36.0001
 L -35.352,36.6013 L -35.3341,36.6176 L -34.6747,37.1877 L -34.6565,37.2027 L -33.9702,37.7405 L -33.9508,37.755
 L -33.2402,38.2584 L -33.2202,38.2718 L -32.4859,38.7404 L -32.4653,38.7529 L -31.7096,39.1853 L -31.6883,39.1968
 L -30.9132,39.5917 L -30.8913,39.6022 L -30.0981,39.9591 L -30.0758,39.9684 L -29.267,40.2861 L -29.2442,40.2944
 L -28.4213,40.5723 L -28.3981,40.5796 L -27.563,40.817 L -27.54,40.823 L -26.6947,41.0194 L -26.6714,41.0242
 L -25.8183,41.1791 L -25.7949,41.1828 L -24.9357,41.2958 L -24.9122,41.2983 L -24.0493,41.369 L -24.0256,41.3704
 L -23.1614,41.3988 L -23.1367,41.399 L -22.2737,41.3849 L -22.2489,41.3839 L -21.3881,41.3275 L -21.3636,41.3253
 L -20.5069,41.2266 L -20.4831,41.2233 L -19.6332,41.0827 L -19.6088,41.078 L -18.7679,40.8958 L -18.7435,40.8899
 L -17.9137,40.6666 L -17.8895,40.6595 L -17.0723,40.3955 L -17.0485,40.3872 L -16.2458,40.0833 L -16.2223,40.0737
 L -15.4362,39.7305 L -15.4137,39.72 L -14.6457,39.3382 L -14.624,39.3267 L -13.8762,38.9073 L -13.8545,38.8944
 L -13.1292,38.4388 L -13.1083,38.4249 L -12.4068,37.9337 L -12.3868,37.919 L -11.7103,37.3933 L -11.6911,37.3776
 L -11.598,37.2974 L -11.56,37.2663 L -11.5205,37.2372 L -11.4797,37.2099 L -11.4376,37.1848 L -11.3943,37.1617
 L -11.3499,37.1407 L -11.3045,37.122 L -11.2583,37.1055 L -11.2155,37.0925 L -9.04391,36.484 L -9.00735,36.4745
 L -6.78029,35.9403 L -6.72713,35.9291 L -4.52982,35.5268 L -4.46352,35.5169 L -2.28452,35.2673 L -2.23564,35.2629
 L -2.20966,35.2616 L -0.0389404,35.177 L 0.0101318,35.1763 L 0.0389404,35.177 L 2.20966,35.2616 L 2.25864,35.2647
 L 2.28452,35.2673 L 4.46352,35.5169 L 4.52982,35.5268 L 6.72713,35.9291 L 6.78029,35.9403 L 9.00735,36.4745
 L 9.04391,36.484 L 11.2155,37.0925 L 11.2625,37.1069 L 11.3086,37.1236 L 11.3539,37.1425 L 11.3982,37.1637
 L 11.4414,37.1869 L 11.4834,37.2123 L 11.5242,37.2397 L 11.5635,37.2691 L 11.598,37.2974 L 11.6911,37.3776
 L 11.7103,37.3933 L 12.3868,37.919 L 12.4068,37.9337 L 13.1083,38.4249 L 13.1292,38.4388 L 13.8545,38.8944
 L 13.8762,38.9073 L 14.624,39.3267 L 14.6457,39.3382 L 15.4137,39.72 L 15.4362,39.7305 L 16.2223,40.0737
 L 16.2458,40.0833 L 17.0485,40.3872 L 17.0723,40.3955 L 17.8895,40.6595 L 17.9137,40.6666 L 18.7435,40.8899
 L 18.7679,40.8958 L 19.6088,41.078 L 19.6332,41.0827 L 20.4831,41.2233 L 20.5069,41.2266 L 21.3636,41.3253
 L 21.3881,41.3275 L 22.2489,41.3839 L 22.2737,41.3849 L 23.1367,41.399 z
M 22.1713,-6.50084 L 21.3637,-6.56041 L 20.5599,-6.65955 L 19.762,-6.798 L 18.9718,-6.97545 L 18.1913,-7.19145
 L 17.4223,-7.44548 L 16.6667,-7.73695 L 15.9263,-8.06514 L 15.2029,-8.42926 L 14.4983,-8.82845 L 13.8141,-9.26172
 L 13.1519,-9.72804 L 12.5135,-10.2263 L 11.9002,-10.7553 L 11.3137,-11.3137 L 10.7553,-11.9002 L 10.2263,-12.5135
 L 9.72804,-13.1519 L 9.26172,-13.8141 L 8.82845,-14.4983 L 8.42926,-15.2029 L 8.06514,-15.9263 L 7.73695,-16.6667
 L 7.44548,-17.4223 L 7.19145,-18.1913 L 6.97545,-18.9718 L 6.798,-19.762 L 6.65955,-20.5599 L 6.56041,-21.3637
 L 6.50084,-22.1713 L 6.48096,-22.981 L 6.50084,-23.7906 L 6.56041,-24.5983 L 6.65955,-25.402 L 6.798,-26.2
 L 6.97545,-26.9901 L 7.19145,-27.7707 L 7.44548,-28.5396 L 7.73695,-29.2952 L 8.06514,-30.0356 L 8.42926,-30.759
 L 8.82845,-31.4637 L 9.26172,-32.1479 L 9.72804,-32.81 L 10.2263,-33.4485 L 10.7553,-34.0617 L 11.3137,-34.6482
 L 11.9002,-35.2066 L 12.5135,-35.7356 L 13.1519,-36.2339 L 13.8141,-36.7002 L 14.4983,-37.1335 L 15.2029,-37.5327
 L 15.9263,-37.8968 L 16.6667,-38.225 L 17.4223,-38.5164 L 18.1913,-38.7705 L 18.9718,-38.9865 L 19.762,-39.1639
 L 20.5599,-39.3024 L 21.3637,-39.4015 L 22.1713,-39.4611 L 22.981,-39.481 L 23.7906,-39.4611 L 24.5983,-39.4015
 L 25.402,-39.3024 L 26.2,-39.1639 L 26.9901,-38.9865 L 27.7707,-38.7705 L 28.5396,-38.5164 L 29.2952,-38.225
 L 30.0356,-37.8968 L 30.759,-37.5327 L 31.4637,-37.1335 L 32.1479,-36.7002 L 32.81,-36.2339 L 33.4485,-35.7356
 L 34.0617,-35.2066 L 34.6482,-34.6482 L 35.2066,-34.0617 L 35.7356,-33.4485 L 36.2339,-32.81 L 36.7002,-32.1479
 L 37.1335,-31.4637 L 37.5327,-30.759 L 37.8968,-30.0356 L 38.225,-29.2952 L 38.5164,-28.5396 L 38.7705,-27.7707
 L 38.9865,-26.9901 L 39.1639,-26.2 L 39.3024,-25.402 L 39.4015,-24.5983 L 39.4611,-23.7906 L 39.481,-22.981
 L 39.4611,-22.1713 L 39.4015,-21.3637 L 39.3024,-20.5599 L 39.1639,-19.762 L 38.9865,-18.9718 L 38.7705,-18.1913
 L 38.5164,-17.4223 L 38.225,-16.6667 L 37.8968,-15.9263 L 37.5327,-15.2029 L 37.1335,-14.4983 L 36.7002,-13.8141
 L 36.2339,-13.1519 L 35.7356,-12.5135 L 35.2066,-11.9002 L 34.6482,-11.3137 L 34.0617,-10.7553 L 33.4485,-10.2263
 L 32.81,-9.72804 L 32.1479,-9.26172 L 31.4637,-8.82845 L 30.759,-8.42926 L 30.0356,-8.06514 L 29.2952,-7.73695
 L 28.5396,-7.44548 L 27.7707,-7.19145 L 26.9901,-6.97545 L 26.2,-6.798 L 25.402,-6.65955 L 24.5983,-6.56041
 L 23.7906,-6.50084 L 22.981,-6.48096 z
M -23.7906,-6.50084 L -24.5983,-6.56041 L -25.402,-6.65955 L -26.2,-6.798 L -26.9901,-6.97545 L -27.7707,-7.19145
 L -28.5396,-7.44548 L -29.2952,-7.73695 L -30.0356,-8.06514 L -30.759,-8.42926 L -31.4637,-8.82845 L -32.1479,-9.26172
 L -32.81,-9.72804 L -33.4485,-10.2263 L -34.0617,-10.7553 L -34.6482,-11.3137 L -35.2066,-11.9002 L -35.7356,-12.5135
 L -36.2339,-13.1519 L -36.7002,-13.8141 L -37.1335,-14.4983 L -37.5327,-15.2029 L -37.8968,-15.9263 L -38.225,-16.6667
 L -38.5164,-17.4223 L -38.7705,-18.1913 L -38.9865,-18.9718 L -39.1639,-19.762 L -39.3024,-20.5599 L -39.4015,-21.3637
 L -39.4611,-22.1713 L -39.481,-22.981 L -39.4611,-23.7906 L -39.4015,-24.5983 L -39.3024,-25.402 L -39.1639,-26.2
 L -38.9865,-26.9901 L -38.7705,-27.7707 L -38.5164,-28.5396 L -38.225,-29.2952 L -37.8968,-30.0356 L -37.5327,-30.759
 L -37.1335,-31.4637 L -36.7002,-32.1479 L -36.2339,-32.81 L -35.7356,-33.4485 L -35.2066,-34.0617 L -34.6482,-34.6482
 L -34.0617,-35.2066 L -33.4485,-35.7356 L -32.81,-36.2339 L -32.1479,-36.7002 L -31.4637,-37.1335 L -30.759,-37.5327
 L -30.0356,-37.8968 L -29.2952,-38.225 L -28.5396,-38.5164 L -27.7707,-38.7705 L -26.9901,-38.9865 L -26.2,-39.1639
 L -25.402,-39.3024 L -24.5983,-39.4015 L -23.7906,-39.4611 L -22.981,-39.481 L -22.1713,-39.4611 L -21.3637,-39.4015
 L -20.5599,-39.3024 L -19.762,-39.1639 L -18.9718,-38.9865 L -18.1913,-38.7705 L -17.4223,-38.5164 L -16.6667,-38.225
 L -15.9263,-37.8968 L -15.2029,-37.5327 L -14.4983,-37.1335 L -13.8141,-36.7002 L -13.1519,-36.2339 L -12.5135,-35.7356
 L -11.9002,-35.2066 L -11.3137,-34.6482 L -10.7553,-34.0617 L -10.2263,-33.4485 L -9.72804,-32.81 L -9.26172,-32.1479
 L -8.82845,-31.4637 L -8.42926,-30.759 L -8.06514,-30.0356 L -7.73695,-29.2952 L -7.44548,-28.5396 L -7.19145,-27.7707
 L -6.97545,-26.9901 L -6.798,-26.2 L -6.65955,-25.402 L -6.56041,-24.5983 L -6.50084,-23.7906 L -6.48096,-22.981
 L -6.50084,-22.1713 L -6.56041,-21.3637 L -6.65955,-20.5599 L -6.798,-19.762 L -6.97545,-18.9718 L -7.19145,-18.1913
 L -7.44548,-17.4223 L -7.73695,-16.6667 L -8.06514,-15.9263 L -8.42926,-15.2029 L -8.82845,-14.4983 L -9.26172,-13.8141
 L -9.72804,-13.1519 L -10.2263,-12.5135 L -10.7553,-11.9002 L -11.3137,-11.3137 L -11.9002,-10.7553 L -12.5135,-10.2263
 L -13.1519,-9.72804 L -13.8141,-9.26172 L -14.4983,-8.82845 L -15.2029,-8.42926 L -15.9263,-8.06514 L -16.6667,-7.73695
 L -17.4223,-7.44548 L -18.1913,-7.19145 L -18.9718,-6.97545 L -19.762,-6.798 L -20.5599,-6.65955 L -21.3637,-6.56041
 L -22.1713,-6.50084 L -22.981,-6.48096 z
M -2.7045,-19.2627 L -2.80238,-19.27 L -2.89981,-19.282 L -2.99654,-19.2988 L -3.04712,-19.3095 L -3.75833,-19.4703
 L -3.85353,-19.4943 L -3.94742,-19.5229 L -4.03979,-19.5562 L -4.13043,-19.5939 L -4.21912,-19.636 L -4.30562,-19.6824
 L -4.38976,-19.733 L -4.47128,-19.7876 L -4.55005,-19.8462 L -4.62584,-19.9086 L -4.69849,-19.9746 L -4.76779,-20.0441
 L -4.83362,-20.117 L -4.89578,-20.1929 L -4.95413,-20.2719 L -5.00856,-20.3536 L -5.0589,-20.4378 L -5.10504,-20.5245
 L -5.1469,-20.6133 L -5.18433,-20.704 L -5.21725,-20.7965 L -5.24562,-20.8905 L -5.26933,-20.9857 L -5.28835,-21.082
 L -5.30261,-21.1792 L -5.31209,-21.2769 L -5.31676,-21.3749 L -5.31662,-21.4731 L -5.31166,-21.5711 L -5.30603,-21.6331
 L -5.30426,-21.6497 L -5.3026,-21.6624 L -5.30003,-21.6863 L -5.22928,-22.5491 L -5.22794,-22.5727 L -5.19955,-23.4369
 L -5.19936,-23.4616 L -5.21341,-24.3246 L -5.21442,-24.3495 L -5.27081,-25.2102 L -5.27303,-25.2348 L -5.37169,-26.0915
 L -5.37503,-26.1153 L -5.51566,-26.9651 L -5.52031,-26.9895 L -5.70251,-27.8304 L -5.70845,-27.8549 L -5.9317,-28.6846
 L -5.93887,-28.7089 L -6.20276,-29.526 L -6.21121,-29.5501 L -6.51497,-30.3522 L -6.52469,-30.3761 L -6.86784,-31.1621
 L -6.87833,-31.1846 L -7.26019,-31.9527 L -7.27164,-31.9744 L -7.69107,-32.7222 L -7.70378,-32.7436 L -7.90849,-33.0695
 L -7.93358,-33.1116 L -7.95656,-33.155 L -7.97739,-33.1995 L -7.996,-33.2449 L -8.01237,-33.2911 L -8.02646,-33.3382
 L -8.03821,-33.3858 L -8.04762,-33.434 L -8.05464,-33.4826 L -8.05928,-33.5314 L -8.06152,-33.5805 L -8.06134,-33.6295
 L -8.05876,-33.6786 L -8.05377,-33.7274 L -8.0464,-33.7759 L -8.03665,-33.824 L -8.02455,-33.8716 L -8.01015,-33.9185
 L -7.99344,-33.9647 L -7.9745,-34.0099 L -7.95335,-34.0542 L -7.93007,-34.0974 L -7.90468,-34.1395 L -7.87726,-34.1802
 L -7.84789,-34.2195 L -7.81662,-34.2573 L -7.78352,-34.2936 L -7.74869,-34.3281 L -7.7122,-34.361 L -7.67415,-34.392
 L -7.63463,-34.4211 L -7.59372,-34.4482 L -7.55153,-34.4733 L -7.50816,-34.4963 L -7.46371,-34.5171 L -7.4183,-34.5357
 L -7.37204,-34.5521 L -7.32501,-34.5662 L -7.27736,-34.5779 L -7.22919,-34.5873 L -7.1806,-34.5943 L -7.13174,-34.599
 L -7.08272,-34.6012 L -7.03363,-34.601 L -6.98462,-34.5985 L -6.93579,-34.5935 L -6.88165,-34.5851 L -4.72552,-34.1904
 L -4.7072,-34.1872 L -4.68301,-34.1836 L -4.65926,-34.1807 L -2.37473,-33.919 L -2.35376,-33.917 L -2.33983,-33.916
 L -2.32249,-33.915 L -0.036438,-33.8259 L -0.0296173,-33.8257 L -0.0124969,-33.8253 L 0.0124969,-33.8253 L 0.0296173,-33.8257
 L 0.036438,-33.8259 L 2.32249,-33.915 L 2.33983,-33.916 L 2.35376,-33.917 L 2.37473,-33.919 L 4.65926,-34.1807
 L 4.68301,-34.1836 L 4.7072,-34.1872 L 4.72787,-34.1908 L 6.88165,-34.5851 L 6.93013,-34.5927 L 6.97893,-34.598
 L 7.02792,-34.6009 L 7.07701,-34.6013 L 7.12605,-34.5994 L 7.17494,-34.595 L 7.22356,-34.5883 L 7.27179,-34.5791
 L 7.3195,-34.5676 L 7.36661,-34.5538 L 7.41296,-34.5377 L 7.45848,-34.5194 L 7.50305,-34.4988 L 7.54655,-34.4761
 L 7.58888,-34.4512 L 7.62994,-34.4243 L 7.66963,-34.3955 L 7.70786,-34.3647 L 7.74454,-34.332 L 7.77956,-34.2977
 L 7.81285,-34.2616 L 7.84435,-34.224 L 7.87395,-34.1848 L 7.9016,-34.1442 L 7.92722,-34.1024 L 7.95076,-34.0593
 L 7.97215,-34.0151 L 7.99135,-33.97 L 8.00832,-33.9239 L 8.02299,-33.8771 L 8.03537,-33.8296 L 8.04539,-33.7815
 L 8.05304,-33.733 L 8.0583,-33.6842 L 8.06117,-33.6353 L 8.06161,-33.5862 L 8.05966,-33.5371 L 8.05531,-33.4882
 L 8.04855,-33.4396 L 8.03943,-33.3914 L 8.02794,-33.3437 L 8.01413,-33.2966 L 7.99803,-33.2502 L 7.97966,-33.2047
 L 7.95909,-33.1601 L 7.93636,-33.1166 L 7.90849,-33.0695 L 7.70378,-32.7436 L 7.69107,-32.7222 L 7.27164,-31.9744
 L 7.26019,-31.9527 L 6.87833,-31.1846 L 6.86784,-31.1621 L 6.52469,-30.3761 L 6.51497,-30.3522 L 6.21121,-29.5501
 L 6.20276,-29.526 L 5.93887,-28.7089 L 5.9317,-28.6846 L 5.70845,-27.8549 L 5.70251,-27.8304 L 5.52031,-26.9895
 L 5.51566,-26.9651 L 5.37503,-26.1153 L 5.37169,-26.0915 L 5.27303,-25.2348 L 5.27081,-25.2102 L 5.21442,-24.3495
 L 5.21341,-24.3246 L 5.19936,-23.4616 L 5.19955,-23.4369 L 5.22794,-22.5727 L 5.22928,-22.5491 L 5.30003,-21.6863
 L 5.3026,-21.6624 L 5.30426,-21.6497 L 5.30603,-21.6331 L 5.31403,-21.5352 L 5.31723,-21.4371 L 5.3156,-21.339
 L 5.30917,-21.241 L 5.29793,-21.1435 L 5.28192,-21.0467 L 5.26118,-20.9507 L 5.23576,-20.8559 L 5.20572,-20.7624
 L 5.17113,-20.6706 L 5.13206,-20.5805 L 5.08864,-20.4925 L 5.04094,-20.4067 L 4.98909,-20.3233 L 4.93321,-20.2426
 L 4.87344,-20.1647 L 4.80992,-20.0899 L 4.7428,-20.0183 L 4.67226,-19.95 L 4.59843,-19.8853 L 4.52153,-19.8243
 L 4.44173,-19.7671 L 4.35922,-19.7139 L 4.2742,-19.6649 L 4.18687,-19.62 L 4.09746,-19.5795 L 4.00615,-19.5435
 L 3.91319,-19.5119 L 3.8188,-19.485 L 3.75833,-19.4703 L 3.04712,-19.3095 L 2.95087,-19.2902 L 2.85379,-19.2757
 L 2.75612,-19.2659 L 2.65808,-19.261 L 2.55991,-19.2608 L 2.46185,-19.2655 L 2.36415,-19.275 L 2.26703,-19.2892
 L 2.17072,-19.3083 L 2.07547,-19.332 L 1.98149,-19.3603 L 1.88901,-19.3933 L 1.79826,-19.4307 L 1.70946,-19.4725
 L 1.62282,-19.5187 L 1.53854,-19.569 L 1.45685,-19.6235 L 1.37791,-19.6818 L 1.35246,-19.7021 L 1.30013,-19.743
 L 1.26056,-19.7723 L 1.21495,-19.8045 L 1.17352,-19.8322 L 1.12589,-19.8623 L 1.08401,-19.8874 L 1.03497,-19.9152
 L 0.991638,-19.9384 L 0.940933,-19.9639 L 0.896942,-19.9847 L 0.845184,-20.0076 L 0.799713,-20.0265 L 0.747238,-20.0467
 L 0.70105,-20.0632 L 0.647339,-20.081 L 0.60051,-20.0952 L 0.546036,-20.1102 L 0.498352,-20.1222 L 0.443466,-20.1345
 L 0.395203,-20.1441 L 0.339783,-20.1537 L 0.29097,-20.161 L 0.235138,-20.1679 L 0.186325,-20.1727 L 0.13002,-20.1768
 L 0.0807343,-20.1792 L 0.024826,-20.1806 L -0.024826,-20.1806 L -0.0807343,-20.1792 L -0.13002,-20.1768 L -0.186325,-20.1727
 L -0.235138,-20.1679 L -0.29097,-20.161 L -0.339783,-20.1537 L -0.395203,-20.1441 L -0.443466,-20.1345 L -0.498352,-20.1222
 L -0.546036,-20.1102 L -0.60051,-20.0952 L -0.647339,-20.081 L -0.70105,-20.0632 L -0.747238,-20.0467 L -0.799713,-20.0265
 L -0.845184,-20.0076 L -0.896942,-19.9847 L -0.940933,-19.9639 L -0.991638,-19.9384 L -1.03497,-19.9152 L -1.08401,-19.8874
 L -1.12589,-19.8623 L -1.17352,-19.8322 L -1.21495,-19.8045 L -1.26056,-19.7723 L -1.30013,-19.743 L -1.36394,-19.6932
 L -1.36407,-19.6934 L -1.4149,-19.6537 L -1.49516,-19.5972 L -1.57811,-19.5447 L -1.66353,-19.4963 L -1.75122,-19.4522
 L -1.84097,-19.4124 L -1.93256,-19.3771 L -2.02577,-19.3463 L -2.12039,-19.3202 L -2.21617,-19.2987 L -2.3129,-19.2819
 L -2.41032,-19.2699 L -2.50822,-19.2627 L -2.60635,-19.2603 z
M -0.199966,-17.0259 L -0.392242,-17.0842 L -0.569458,-17.179 L -0.724777,-17.3064 L -0.852249,-17.4618 L -0.946976,-17.639
 L -1.00529,-17.8313 L -1.02499,-18.0312 L -1.00529,-18.2312 L -0.946976,-18.4235 L -0.852249,-18.6007 L -0.724777,-18.756
 L -0.569458,-18.8835 L -0.392242,-18.9782 L -0.199966,-19.0365 L 0,-19.0562 L 0.199966,-19.0365 L 0.392242,-18.9782
 L 0.569458,-18.8835 L 0.724777,-18.756 L 0.852249,-18.6007 L 0.946976,-18.4235 L 1.00529,-18.2312 L 1.02499,-18.0312
 L 1.00529,-17.8313 L 0.946976,-17.639 L 0.852249,-17.4618 L 0.724777,-17.3064 L 0.569458,-17.179 L 0.392242,-17.0842
 L 0.199966,-17.0259 L 0,-17.0062 z
M 4.46237,18.4132 L 4.36435,18.4078 L 4.26672,18.3976 L 4.16971,18.3826 L 4.0826,18.3649 L 3.30058,18.1881
 L 3.2054,18.1641 L 3.11151,18.1355 L 3.01913,18.1023 L 2.9285,18.0646 L 2.83981,18.0225 L 2.75331,17.9761
 L 2.66919,17.9255 L 2.58765,17.8708 L 2.50888,17.8122 L 2.43309,17.7498 L 2.36046,17.6838 L 2.29114,17.6143
 L 2.22533,17.5415 L 2.16316,17.4655 L 2.1048,17.3866 L 2.05038,17.3049 L 2.00005,17.2206 L 1.94373,17.1119
 L 1.94357,17.112 L 1.93692,17.0988 L 1.93387,17.0929 L 1.93253,17.09 L 1.90707,17.0395 L 1.88406,16.9964
 L 1.85626,16.9473 L 1.83099,16.9052 L 1.80077,16.8574 L 1.77353,16.8167 L 1.74117,16.7707 L 1.71152,16.7308
 L 1.67725,16.6869 L 1.64581,16.6485 L 1.60899,16.6059 L 1.57623,16.5697 L 1.53726,16.5288 L 1.50244,16.494
 L 1.46181,16.4553 L 1.42508,16.422 L 1.38246,16.3852 L 1.34457,16.3541 L 1.30013,16.3194 L 1.26056,16.2901
 L 1.21495,16.258 L 1.17352,16.2303 L 1.12589,16.2001 L 1.08401,16.175 L 1.03523,16.1474 L 0.991272,16.1239
 L 0.941147,16.0987 L 0.896805,16.0777 L 0.845215,16.0548 L 0.799713,16.036 L 0.747238,16.0157 L 0.70105,15.9992
 L 0.647278,15.9815 L 0.600494,15.9673 L 0.546021,15.9522 L 0.498734,15.9403 L 0.443375,15.9279 L 0.395035,15.9183
 L 0.339691,15.9087 L 0.29126,15.9015 L 0.234772,15.8945 L 0.186584,15.8898 L 0.129929,15.8856 L 0.0807037,15.8832
 L 0.024826,15.8818 L -0.024826,15.8818 L -0.0807037,15.8832 L -0.129929,15.8856 L -0.186584,15.8898 L -0.234772,15.8945
 L -0.29126,15.9015 L -0.339691,15.9087 L -0.395035,15.9183 L -0.443375,15.9279 L -0.498734,15.9403 L -0.546021,15.9522
 L -0.600494,15.9673 L -0.647278,15.9815 L -0.70105,15.9992 L -0.747238,16.0157 L -0.799713,16.036 L -0.845215,16.0548
 L -0.896805,16.0777 L -0.941147,16.0987 L -0.991272,16.1239 L -1.03523,16.1474 L -1.08401,16.175 L -1.12589,16.2001
 L -1.17352,16.2303 L -1.21495,16.258 L -1.26056,16.2901 L -1.30013,16.3194 L -1.34457,16.3541 L -1.38246,16.3852
 L -1.42508,16.422 L -1.46181,16.4553 L -1.50244,16.494 L -1.53726,16.5288 L -1.57623,16.5697 L -1.60899,16.6059
 L -1.64581,16.6485 L -1.67725,16.6869 L -1.71152,16.7308 L -1.74117,16.7707 L -1.77353,16.8167 L -1.80077,16.8574
 L -1.83099,16.9052 L -1.85626,16.9473 L -1.88406,16.9964 L -1.90707,17.0395 L -1.93253,17.09 L -1.93387,17.0929
 L -1.97803,17.1805 L -2.02643,17.2659 L -2.07896,17.3489 L -2.13551,17.4291 L -2.19592,17.5065 L -2.26006,17.5808
 L -2.32776,17.6519 L -2.39888,17.7196 L -2.47322,17.7837 L -2.55061,17.844 L -2.63089,17.9005 L -2.71384,17.953
 L -2.79926,18.0014 L -2.88695,18.0455 L -2.9767,18.0853 L -3.0683,18.1206 L -3.16151,18.1514 L -3.30058,18.1881
 L -4.0826,18.3649 L -4.17885,18.3842 L -4.27594,18.3988 L -4.37361,18.4085 L -4.47165,18.4135 L -4.56981,18.4137
 L -4.66786,18.409 L -4.76558,18.3995 L -4.8627,18.3852 L -4.959,18.3662 L -5.05426,18.3425 L -5.14824,18.3142
 L -5.24072,18.2812 L -5.33147,18.2438 L -5.42027,18.202 L -5.50691,18.1558 L -5.59119,18.1055 L -5.67288,18.0511
 L -5.75182,17.9927 L -5.82779,17.9305 L -5.90062,17.8647 L -5.97014,17.7954 L -6.03616,17.7228 L -6.09856,17.647
 L -6.15715,17.5682 L -6.21181,17.4867 L -6.26241,17.4025 L -6.30881,17.316 L -6.35091,17.2274 L -6.38522,17.1454
 L -6.62988,16.5225 L -6.63925,16.5002 L -6.99614,15.707 L -7.00664,15.6851 L -7.40154,14.9101 L -7.41306,14.8887
 L -7.84544,14.133 L -7.85788,14.1124 L -8.32649,13.3781 L -8.33995,13.3581 L -8.84335,12.6475 L -8.85783,12.6281
 L -9.39558,11.9418 L -9.41061,11.9236 L -9.98076,11.2642 L -9.99702,11.2463 L -10.5983,10.6153 L -10.6153,10.5983
 L -11.2463,9.99702 L -11.2642,9.98076 L -11.9236,9.41061 L -11.9418,9.39558 L -12.6281,8.85783 L -12.6475,8.84335
 L -13.3581,8.33995 L -13.3781,8.32649 L -14.1124,7.85788 L -14.133,7.84544 L -14.8887,7.41306 L -14.9101,7.40154
 L -15.6851,7.00664 L -15.707,6.99614 L -16.5002,6.63925 L -16.5225,6.62988 L -17.1454,6.38522 L -17.2358,6.34711
 L -17.3243,6.3046 L -17.4106,6.2578 L -17.4945,6.20682 L -17.5758,6.15178 L -17.6543,6.09282 L -17.7298,6.03008
 L -17.8021,5.96371 L -17.8711,5.89388 L -17.9366,5.82074 L -17.9984,5.74448 L -18.0564,5.66527 L -18.1104,5.58333
 L -18.1604,5.49881 L -18.2061,5.41196 L -18.2475,5.32297 L -18.2845,5.23204 L -18.317,5.13942 L -18.345,5.0453
 L -18.3682,4.94994 L -18.3868,4.85355 L -18.4006,4.75636 L -18.4096,4.6586 L -18.4138,4.56053 L -18.4132,4.46237
 L -18.4078,4.36435 L -18.3976,4.26672 L -18.3826,4.16971 L -18.3649,4.0826 L -18.1881,3.30058 L -18.1641,3.2054
 L -18.1355,3.11151 L -18.1023,3.01913 L -18.0646,2.9285 L -18.0225,2.83981 L -17.9761,2.75331 L -17.9255,2.66919
 L -17.8708,2.58765 L -17.8122,2.50888 L -17.7498,2.43309 L -17.6838,2.36046 L -17.6143,2.29114 L -17.5415,2.22533
 L -17.4655,2.16316 L -17.3866,2.1048 L -17.3049,2.05038 L -17.2206,2.00005 L -17.1119,1.94373 L -17.112,1.94357
 L -17.0988,1.93692 L -17.0929,1.93387 L -17.0901,1.93256 L -17.0395,1.90707 L -16.9964,1.88406 L -16.9473,1.85626
 L -16.9052,1.83099 L -16.8574,1.80077 L -16.8167,1.77353 L -16.7707,1.74117 L -16.7308,1.71152 L -16.6869,1.67725
 L -16.6485,1.64581 L -16.6059,1.60899 L -16.5697,1.57623 L -16.5288,1.53726 L -16.494,1.50244 L -16.4553,1.46181
 L -16.422,1.42508 L -16.3852,1.38246 L -16.3541,1.34457 L -16.3194,1.30013 L -16.2901,1.26056 L -16.258,1.21495
 L -16.2303,1.17352 L -16.2001,1.12589 L -16.175,1.08401 L -16.1474,1.03523 L -16.1239,0.991272 L -16.0987,0.941147
 L -16.0777,0.896805 L -16.0548,0.845215 L -16.036,0.799713 L -16.0157,0.747238 L -15.9992,0.70105 L -15.9815,0.647278
 L -15.9673,0.600494 L -15.9522,0.546021 L -15.9403,0.498734 L -15.9279,0.443375 L -15.9183,0.395035 L -15.9087,0.339691
 L -15.9015,0.29126 L -15.8945,0.234772 L -15.8898,0.186584 L -15.8856,0.129929 L -15.8832,0.0807037 L -15.8818,0.024826
 L -15.8818,-0.024826 L -15.8832,-0.0807037 L -15.8856,-0.129929 L -15.8898,-0.186584 L -15.8945,-0.234772 L -15.9015,-0.29126
 L -15.9087,-0.339691 L -15.9183,-0.395035 L -15.9279,-0.443375 L -15.9403,-0.498734 L -15.9522,-0.546021 L -15.9673,-0.600494
 L -15.9815,-0.647278 L -15.9992,-0.70105 L -16.0157,-0.747238 L -16.036,-0.799713 L -16.0548,-0.845215 L -16.0777,-0.896805
 L -16.0987,-0.941147 L -16.1239,-0.991272 L -16.1474,-1.03523 L -16.175,-1.08401 L -16.2001,-1.12589 L -16.2303,-1.17352
 L -16.258,-1.21495 L -16.2901,-1.26056 L -16.3194,-1.30013 L -16.3541,-1.34457 L -16.3852,-1.38246 L -16.422,-1.42508
 L -16.4553,-1.46181 L -16.494,-1.50244 L -16.5288,-1.53726 L -16.5697,-1.57623 L -16.6059,-1.60899 L -16.6485,-1.64581
 L -16.6869,-1.67725 L -16.7308,-1.71152 L -16.7707,-1.74117 L -16.8167,-1.77353 L -16.8574,-1.80077 L -16.9052,-1.83099
 L -16.9473,-1.85626 L -16.9964,-1.88406 L -17.0395,-1.90707 L -17.09,-1.93253 L -17.0929,-1.93387 L -17.1805,-1.97803
 L -17.2659,-2.02643 L -17.3489,-2.07896 L -17.4291,-2.13551 L -17.5065,-2.19592 L -17.5808,-2.26006 L -17.6519,-2.32776
 L -17.7196,-2.39888 L -17.7837,-2.47322 L -17.844,-2.55061 L -17.9005,-2.63089 L -17.953,-2.71384 L -18.0014,-2.79926
 L -18.0455,-2.88695 L -18.0853,-2.9767 L -18.1206,-3.0683 L -18.1514,-3.16151 L -18.1881,-3.30058 L -18.3649,-4.0826
 L -18.3842,-4.17885 L -18.3988,-4.27594 L -18.4085,-4.37361 L -18.4135,-4.47165 L -18.4137,-4.56981 L -18.409,-4.66786
 L -18.3995,-4.76558 L -18.3852,-4.8627 L -18.3662,-4.959 L -18.3425,-5.05426 L -18.3142,-5.14824 L -18.2812,-5.24072
 L -18.2438,-5.33147 L -18.202,-5.42027 L -18.1558,-5.50691 L -18.1055,-5.59119 L -18.0511,-5.67288 L -17.9927,-5.75182
 L -17.9305,-5.82779 L -17.8647,-5.90062 L -17.7954,-5.97014 L -17.7228,-6.03616 L -17.647,-6.09856 L -17.5682,-6.15715
 L -17.4867,-6.21181 L -17.4025,-6.26241 L -17.316,-6.30881 L -17.2274,-6.35091 L -17.1454,-6.38522 L -16.5225,-6.62988
 L -16.5002,-6.63925 L -15.707,-6.99614 L -15.6851,-7.00664 L -14.9101,-7.40154 L -14.8887,-7.41306 L -14.133,-7.84544
 L -14.1124,-7.85788 L -13.3781,-8.32649 L -13.3581,-8.33995 L -12.6475,-8.84335 L -12.6281,-8.85783 L -11.9418,-9.39558
 L -11.9236,-9.41061 L -11.2642,-9.98076 L -11.2463,-9.99702 L -10.6153,-10.5983 L -10.5983,-10.6153 L -9.99702,-11.2463
 L -9.98076,-11.2642 L -9.41061,-11.9236 L -9.39558,-11.9418 L -8.85783,-12.6281 L -8.84335,-12.6475 L -8.33995,-13.3581
 L -8.32649,-13.3781 L -7.85788,-14.1124 L -7.84544,-14.133 L -7.41306,-14.8887 L -7.40154,-14.9101 L -7.00664,-15.6851
 L -6.99614,-15.707 L -6.63925,-16.5002 L -6.62988,-16.5225 L -6.38522,-17.1454 L -6.34711,-17.2358 L -6.3046,-17.3243
 L -6.2578,-17.4106 L -6.20682,-17.4945 L -6.15178,-17.5758 L -6.09282,-17.6543 L -6.03008,-17.7298 L -5.96371,-17.8021
 L -5.89388,-17.8711 L -5.82074,-17.9366 L -5.74448,-17.9984 L -5.66527,-18.0564 L -5.58333,-18.1104 L -5.49881,-18.1604
 L -5.41196,-18.2061 L -5.32297,-18.2475 L -5.23204,-18.2845 L -5.13942,-18.317 L -5.0453,-18.345 L -4.94994,-18.3682
 L -4.85355,-18.3868 L -4.75636,-18.4006 L -4.6586,-18.4096 L -4.56053,-18.4138 L -4.46237,-18.4132 L -4.36435,-18.4078
 L -4.26672,-18.3976 L -4.16971,-18.3826 L -4.0826,-18.3649 L -3.30058,-18.1881 L -3.2054,-18.1641 L -3.11151,-18.1355
 L -3.01913,-18.1023 L -2.9285,-18.0646 L -2.83981,-18.0225 L -2.75331,-17.9761 L -2.66919,-17.9255 L -2.58765,-17.8708
 L -2.50888,-17.8122 L -2.43309,-17.7498 L -2.36046,-17.6838 L -2.29114,-17.6143 L -2.22533,-17.5415 L -2.16316,-17.4655
 L -2.1048,-17.3866 L -2.05038,-17.3049 L -2.00005,-17.2206 L -1.94373,-17.1119 L -1.94357,-17.112 L -1.93692,-17.0988
 L -1.93387,-17.0929 L -1.93253,-17.09 L -1.90707,-17.0395 L -1.88406,-16.9964 L -1.85626,-16.9473 L -1.83099,-16.9052
 L -1.80077,-16.8574 L -1.77353,-16.8167 L -1.74117,-16.7707 L -1.71152,-16.7308 L -1.67725,-16.6869 L -1.64581,-16.6485
 L -1.60899,-16.6059 L -1.57623,-16.5697 L -1.53726,-16.5288 L -1.50244,-16.494 L -1.46181,-16.4553 L -1.42508,-16.422
 L -1.38246,-16.3852 L -1.34457,-16.3541 L -1.30013,-16.3194 L -1.26056,-16.2901 L -1.21495,-16.258 L -1.17352,-16.2303
 L -1.12589,-16.2001 L -1.08401,-16.175 L -1.03523,-16.1474 L -0.991272,-16.1239 L -0.941147,-16.0987 L -0.896805,-16.0777
 L -0.845215,-16.0548 L -0.799713,-16.036 L -0.747238,-16.0157 L -0.70105,-15.9992 L -0.647278,-15.9815 L -0.600494,-15.9673
 L -0.546021,-15.9522 L -0.498734,-15.9403 L -0.443375,-15.9279 L -0.395035,-15.9183 L -0.339691,-15.9087 L -0.29126,-15.9015
 L -0.234772,-15.8945 L -0.186584,-15.8898 L -0.129929,-15.8856 L -0.0807037,-15.8832 L -0.024826,-15.8818 L 0.024826,-15.8818
 L 0.0807037,-15.8832 L 0.129929,-15.8856 L 0.186584,-15.8898 L 0.234772,-15.8945 L 0.29126,-15.9015 L 0.339691,-15.9087
 L 0.395035,-15.9183 L 0.443375,-15.9279 L 0.498734,-15.9403 L 0.546021,-15.9522 L 0.600494,-15.9673 L 0.647278,-15.9815
 L 0.70105,-15.9992 L 0.747238,-16.0157 L 0.799713,-16.036 L 0.845215,-16.0548 L 0.896805,-16.0777 L 0.941147,-16.0987
 L 0.991272,-16.1239 L 1.03523,-16.1474 L 1.08401,-16.175 L 1.12589,-16.2001 L 1.17352,-16.2303 L 1.21495,-16.258
 L 1.26056,-16.2901 L 1.30013,-16.3194 L 1.34457,-16.3541 L 1.38246,-16.3852 L 1.42508,-16.422 L 1.46181,-16.4553
 L 1.50244,-16.494 L 1.53726,-16.5288 L 1.57623,-16.5697 L 1.60899,-16.6059 L 1.64581,-16.6485 L 1.67725,-16.6869
 L 1.71152,-16.7308 L 1.74117,-16.7707 L 1.77353,-16.8167 L 1.80077,-16.8574 L 1.83099,-16.9052 L 1.85626,-16.9473
 L 1.88406,-16.9964 L 1.90707,-17.0395 L 1.93253,-17.09 L 1.93387,-17.0929 L 1.97803,-17.1805 L 2.02643,-17.2659
 L 2.07896,-17.3489 L 2.13551,-17.4291 L 2.19592,-17.5065 L 2.26006,-17.5808 L 2.32776,-17.6519 L 2.39888,-17.7196
 L 2.47322,-17.7837 L 2.55061,-17.844 L 2.63089,-17.9005 L 2.71384,-17.953 L 2.79926,-18.0014 L 2.88695,-18.0455
 L 2.9767,-18.0853 L 3.0683,-18.1206 L 3.16151,-18.1514 L 3.30058,-18.1881 L 4.0826,-18.3649 L 4.17885,-18.3842
 L 4.27594,-18.3988 L 4.37361,-18.4085 L 4.47165,-18.4135 L 4.56981,-18.4137 L 4.66786,-18.409 L 4.76558,-18.3995
 L 4.8627,-18.3852 L 4.959,-18.3662 L 5.05426,-18.3425 L 5.14824,-18.3142 L 5.24072,-18.2812 L 5.33147,-18.2438
 L 5.42027,-18.202 L 5.50691,-18.1558 L 5.59119,-18.1055 L 5.67288,-18.0511 L 5.75182,-17.9927 L 5.82779,-17.9305
 L 5.90062,-17.8647 L 5.97014,-17.7954 L 6.03616,-17.7228 L 6.09856,-17.647 L 6.15715,-17.5682 L 6.21181,-17.4867
 L 6.26241,-17.4025 L 6.30881,-17.316 L 6.35091,-17.2274 L 6.38522,-17.1454 L 6.62988,-16.5225 L 6.63925,-16.5002
 L 6.99614,-15.707 L 7.00664,-15.6851 L 7.40154,-14.9101 L 7.41306,-14.8887 L 7.84544,-14.133 L 7.85788,-14.1124
 L 8.32649,-13.3781 L 8.33995,-13.3581 L 8.84335,-12.6475 L 8.85783,-12.6281 L 9.39558,-11.9418 L 9.41061,-11.9236
 L 9.98076,-11.2642 L 9.99702,-11.2463 L 10.5983,-10.6153 L 10.6153,-10.5983 L 11.2463,-9.99702 L 11.2642,-9.98076
 L 11.9236,-9.41061 L 11.9418,-9.39558 L 12.6281,-8.85783 L 12.6475,-8.84335 L 13.3581,-8.33995 L 13.3781,-8.32649
 L 14.1124,-7.85788 L 14.133,-7.84544 L 14.8887,-7.41306 L 14.9101,-7.40154 L 15.6851,-7.00664 L 15.707,-6.99614
 L 16.5002,-6.63925 L 16.5225,-6.62988 L 17.1454,-6.38522 L 17.2358,-6.34711 L 17.3243,-6.3046 L 17.4106,-6.2578
 L 17.4945,-6.20682 L 17.5758,-6.15178 L 17.6543,-6.09282 L 17.7298,-6.03008 L 17.8021,-5.96371 L 17.8711,-5.89388
 L 17.9366,-5.82074 L 17.9984,-5.74448 L 18.0564,-5.66527 L 18.1104,-5.58333 L 18.1604,-5.49881 L 18.2061,-5.41196
 L 18.2475,-5.32297 L 18.2845,-5.23204 L 18.317,-5.13942 L 18.345,-5.0453 L 18.3682,-4.94994 L 18.3868,-4.85355
 L 18.4006,-4.75636 L 18.4096,-4.6586 L 18.4138,-4.56053 L 18.4132,-4.46237 L 18.4078,-4.36435 L 18.3976,-4.26672
 L 18.3826,-4.16971 L 18.3649,-4.0826 L 18.1881,-3.30058 L 18.1641,-3.2054 L 18.1355,-3.11151 L 18.1023,-3.01913
 L 18.0646,-2.9285 L 18.0225,-2.83981 L 17.9761,-2.75331 L 17.9255,-2.66919 L 17.8708,-2.58765 L 17.8122,-2.50888
 L 17.7498,-2.43309 L 17.6838,-2.36046 L 17.6143,-2.29114 L 17.5415,-2.22533 L 17.4655,-2.16316 L 17.3866,-2.1048
 L 17.3049,-2.05038 L 17.2206,-2.00005 L 17.1119,-1.94373 L 17.112,-1.94357 L 17.0988,-1.93692 L 17.0929,-1.93387
 L 17.09,-1.93253 L 17.0395,-1.90707 L 16.9964,-1.88406 L 16.9473,-1.85626 L 16.9052,-1.83099 L 16.8574,-1.80077
 L 16.8167,-1.77353 L 16.7707,-1.74117 L 16.7308,-1.71152 L 16.6869,-1.67725 L 16.6485,-1.64581 L 16.6059,-1.60899
 L 16.5697,-1.57623 L 16.5288,-1.53726 L 16.494,-1.50244 L 16.4553,-1.46181 L 16.422,-1.42508 L 16.3852,-1.38246
 L 16.3541,-1.34457 L 16.3194,-1.30013 L 16.2901,-1.26056 L 16.258,-1.21495 L 16.2303,-1.17352 L 16.2001,-1.12589
 L 16.175,-1.08401 L 16.1474,-1.03523 L 16.1239,-0.991272 L 16.0987,-0.941147 L 16.0777,-0.896805 L 16.0548,-0.845215
 L 16.036,-0.799713 L 16.0157,-0.747238 L 15.9992,-0.70105 L 15.9815,-0.647278 L 15.9673,-0.600494 L 15.9522,-0.546021
 L 15.9403,-0.498734 L 15.9279,-0.443375 L 15.9183,-0.395035 L 15.9087,-0.339691 L 15.9015,-0.29126 L 15.8945,-0.234772
 L 15.8898,-0.186584 L 15.8856,-0.129929 L 15.8832,-0.0807037 L 15.8818,-0.024826 L 15.8818,0.024826 L 15.8832,0.0807037
 L 15.8856,0.129929 L 15.8898,0.186584 L 15.8945,0.234772 L 15.9015,0.29126 L 15.9087,0.339691 L 15.9183,0.395035
 L 15.9279,0.443375 L 15.9403,0.498734 L 15.9522,0.546021 L 15.9673,0.600494 L 15.9815,0.647278 L 15.9992,0.70105
 L 16.0157,0.747238 L 16.036,0.799713 L 16.0548,0.845215 L 16.0777,0.896805 L 16.0987,0.941147 L 16.1239,0.991272
 L 16.1474,1.03523 L 16.175,1.08401 L 16.2001,1.12589 L 16.2303,1.17352 L 16.258,1.21495 L 16.2901,1.26056
 L 16.3194,1.30013 L 16.3541,1.34457 L 16.3852,1.38246 L 16.422,1.42508 L 16.4553,1.46181 L 16.494,1.50244
 L 16.5288,1.53726 L 16.5697,1.57623 L 16.6059,1.60899 L 16.6485,1.64581 L 16.6869,1.67725 L 16.7308,1.71152
 L 16.7707,1.74117 L 16.8167,1.77353 L 16.8574,1.80077 L 16.9052,1.83099 L 16.9473,1.85626 L 16.9964,1.88406
 L 17.0395,1.90707 L 17.0901,1.93256 L 17.0929,1.93387 L 17.1805,1.97803 L 17.2659,2.02643 L 17.3489,2.07896
 L 17.4291,2.13551 L 17.5065,2.19592 L 17.5808,2.26006 L 17.6519,2.32776 L 17.7196,2.39888 L 17.7837,2.47322
 L 17.844,2.55061 L 17.9005,2.63089 L 17.953,2.71384 L 18.0014,2.79926 L 18.0455,2.88695 L 18.0853,2.9767
 L 18.1206,3.0683 L 18.1514,3.16151 L 18.1881,3.30058 L 18.3649,4.0826 L 18.3842,4.17885 L 18.3988,4.27594
 L 18.4085,4.37361 L 18.4135,4.47165 L 18.4137,4.56981 L 18.409,4.66786 L 18.3995,4.76558 L 18.3852,4.8627
 L 18.3662,4.959 L 18.3425,5.05426 L 18.3142,5.14824 L 18.2812,5.24072 L 18.2438,5.33147 L 18.202,5.42027
 L 18.1558,5.50691 L 18.1055,5.59119 L 18.0511,5.67288 L 17.9927,5.75182 L 17.9305,5.82779 L 17.8647,5.90062
 L 17.7954,5.97014 L 17.7228,6.03616 L 17.647,6.09856 L 17.5682,6.15715 L 17.4867,6.21181 L 17.4025,6.26241
 L 17.316,6.30881 L 17.2274,6.35091 L 17.1454,6.38522 L 16.5225,6.62988 L 16.5002,6.63925 L 15.707,6.99614
 L 15.6851,7.00664 L 14.9101,7.40154 L 14.8887,7.41306 L 14.133,7.84544 L 14.1124,7.85788 L 13.3781,8.32649
 L 13.3581,8.33995 L 12.6475,8.84335 L 12.6281,8.85783 L 11.9418,9.39558 L 11.9236,9.41061 L 11.2642,9.98076
 L 11.2463,9.99702 L 10.6153,10.5983 L 10.5983,10.6153 L 9.99702,11.2463 L 9.98076,11.2642 L 9.41061,11.9236
 L 9.39558,11.9418 L 8.85783,12.6281 L 8.84335,12.6475 L 8.33995,13.3581 L 8.32649,13.3781 L 7.85788,14.1124
 L 7.84544,14.133 L 7.41306,14.8887 L 7.40154,14.9101 L 7.00664,15.6851 L 6.99614,15.707 L 6.63925,16.5002
 L 6.62988,16.5225 L 6.38522,17.1454 L 6.34711,17.2358 L 6.3046,17.3243 L 6.2578,17.4106 L 6.20682,17.4945
 L 6.15178,17.5758 L 6.09282,17.6543 L 6.03008,17.7298 L 5.96371,17.8021 L 5.89388,17.8711 L 5.82074,17.9366
 L 5.74448,17.9984 L 5.66527,18.0564 L 5.58333,18.1104 L 5.49881,18.1604 L 5.41196,18.2061 L 5.32297,18.2475
 L 5.23204,18.2845 L 5.13942,18.317 L 5.0453,18.345 L 4.94994,18.3682 L 4.85355,18.3868 L 4.75636,18.4006
 L 4.6586,18.4096 L 4.56053,18.4138 z
M -33.6295,8.06134 L -33.6786,8.05876 L -33.7274,8.05377 L -33.7759,8.0464 L -33.824,8.03665 L -33.8716,8.02455
 L -33.9185,8.01015 L -33.9647,7.99344 L -34.0099,7.9745 L -34.0542,7.95335 L -34.0974,7.93007 L -34.1395,7.90468
 L -34.1802,7.87726 L -34.2195,7.84789 L -34.2573,7.81662 L -34.2936,7.78352 L -34.3281,7.74869 L -34.361,7.7122
 L -34.392,7.67415 L -34.4211,7.63463 L -34.4482,7.59372 L -34.4733,7.55153 L -34.4963,7.50816 L -34.5171,7.46371
 L -34.5357,7.4183 L -34.5521,7.37204 L -34.5662,7.32501 L -34.5779,7.27736 L -34.5873,7.22919 L -34.5943,7.1806
 L -34.599,7.13174 L -34.6012,7.08272 L -34.601,7.03363 L -34.5985,6.98462 L -34.5935,6.93579 L -34.5851,6.88165
 L -34.1904,4.72552 L -34.1872,4.7072 L -34.1836,4.68301 L -34.1807,4.65926 L -33.919,2.37473 L -33.917,2.35376
 L -33.916,2.33983 L -33.915,2.32249 L -33.8259,0.036438 L -33.8257,0.0296173 L -33.8253,0.0124969 L -33.8253,-0.0124969
 L -33.8257,-0.0296173 L -33.8259,-0.036438 L -33.915,-2.32249 L -33.916,-2.33983 L -33.917,-2.35376 L -33.919,-2.37473
 L -34.1807,-4.65926 L -34.1836,-4.68301 L -34.1872,-4.7072 L -34.1908,-4.72787 L -34.5851,-6.88165 L -34.5927,-6.93013
 L -34.598,-6.97893 L -34.6009,-7.02792 L -34.6013,-7.07701 L -34.5994,-7.12605 L -34.595,-7.17494 L -34.5883,-7.22356
 L -34.5791,-7.27179 L -34.5676,-7.3195 L -34.5538,-7.36661 L -34.5377,-7.41296 L -34.5194,-7.45848 L -34.4988,-7.50305
 L -34.4761,-7.54655 L -34.4512,-7.58888 L -34.4243,-7.62994 L -34.3955,-7.66963 L -34.3647,-7.70786 L -34.332,-7.74454
 L -34.2977,-7.77956 L -34.2616,-7.81285 L -34.224,-7.84435 L -34.1848,-7.87395 L -34.1442,-7.9016 L -34.1024,-7.92722
 L -34.0593,-7.95076 L -34.0151,-7.97215 L -33.97,-7.99135 L -33.9239,-8.00832 L -33.8771,-8.02299 L -33.8296,-8.03537
 L -33.7815,-8.04539 L -33.733,-8.05304 L -33.6842,-8.0583 L -33.6353,-8.06117 L -33.5862,-8.06161 L -33.5371,-8.05966
 L -33.4882,-8.05531 L -33.4396,-8.04855 L -33.3914,-8.03943 L -33.3437,-8.02794 L -33.2966,-8.01413 L -33.2502,-7.99803
 L -33.2047,-7.97966 L -33.1601,-7.95909 L -33.1166,-7.93636 L -33.0695,-7.90849 L -32.7436,-7.70378 L -32.7222,-7.69107
 L -31.9744,-7.27164 L -31.9527,-7.26019 L -31.1846,-6.87833 L -31.1621,-6.86784 L -30.3761,-6.52469 L -30.3522,-6.51497
 L -29.5501,-6.21121 L -29.526,-6.20276 L -28.7089,-5.93887 L -28.6846,-5.9317 L -27.8549,-5.70845 L -27.8304,-5.70251
 L -26.9895,-5.52031 L -26.9651,-5.51566 L -26.1153,-5.37503 L -26.0915,-5.37169 L -25.2348,-5.27303 L -25.2102,-5.27081
 L -24.3495,-5.21442 L -24.3246,-5.21341 L -23.4616,-5.19936 L -23.4369,-5.19955 L -22.5727,-5.22794 L -22.5491,-5.22928
 L -21.6863,-5.30003 L -21.6624,-5.3026 L -21.6497,-5.30426 L -21.6331,-5.30603 L -21.5352,-5.31403 L -21.4371,-5.31723
 L -21.339,-5.3156 L -21.241,-5.30917 L -21.1435,-5.29793 L -21.0467,-5.28192 L -20.9507,-5.26118 L -20.8559,-5.23576
 L -20.7624,-5.20572 L -20.6706,-5.17113 L -20.5805,-5.13206 L -20.4925,-5.08864 L -20.4067,-5.04094 L -20.3233,-4.98909
 L -20.2426,-4.93321 L -20.1647,-4.87344 L -20.0899,-4.80992 L -20.0183,-4.7428 L -19.95,-4.67226 L -19.8853,-4.59843
 L -19.8243,-4.52153 L -19.7671,-4.44173 L -19.7139,-4.35922 L -19.6649,-4.2742 L -19.62,-4.18687 L -19.5795,-4.09746
 L -19.5435,-4.00615 L -19.5119,-3.91319 L -19.485,-3.8188 L -19.4703,-3.75833 L -19.3095,-3.04712 L -19.2902,-2.95087
 L -19.2757,-2.85379 L -19.2659,-2.75612 L -19.261,-2.65808 L -19.2608,-2.55991 L -19.2655,-2.46185 L -19.275,-2.36415
 L -19.2892,-2.26703 L -19.3083,-2.17072 L -19.332,-2.07547 L -19.3603,-1.98149 L -19.3933,-1.88901 L -19.4307,-1.79826
 L -19.4725,-1.70946 L -19.5187,-1.62282 L -19.569,-1.53854 L -19.6235,-1.45685 L -19.6818,-1.37791 L -19.7021,-1.35246
 L -19.743,-1.30013 L -19.7723,-1.26056 L -19.8045,-1.21495 L -19.8322,-1.17352 L -19.8623,-1.12589 L -19.8874,-1.08401
 L -19.9152,-1.03497 L -19.9384,-0.991638 L -19.9639,-0.940933 L -19.9847,-0.896942 L -20.0076,-0.845184 L -20.0265,-0.799713
 L -20.0467,-0.747238 L -20.0632,-0.70105 L -20.081,-0.647339 L -20.0952,-0.60051 L -20.1102,-0.546036 L -20.1222,-0.498352
 L -20.1345,-0.443466 L -20.1441,-0.395203 L -20.1537,-0.339783 L -20.161,-0.29097 L -20.1679,-0.235138 L -20.1727,-0.186325
 L -20.1768,-0.13002 L -20.1792,-0.0807343 L -20.1806,-0.024826 L -20.1806,0.024826 L -20.1792,0.0807343 L -20.1768,0.13002
 L -20.1727,0.186325 L -20.1679,0.235138 L -20.161,0.29097 L -20.1537,0.339783 L -20.1441,0.395203 L -20.1345,0.443466
 L -20.1222,0.498352 L -20.1102,0.546036 L -20.0952,0.60051 L -20.081,0.647339 L -20.0632,0.70105 L -20.0467,0.747238
 L -20.0265,0.799713 L -20.0076,0.845184 L -19.9847,0.896942 L -19.9639,0.940933 L -19.9384,0.991638 L -19.9152,1.03497
 L -19.8874,1.08401 L -19.8623,1.12589 L -19.8322,1.17352 L -19.8045,1.21495 L -19.7723,1.26056 L -19.743,1.30013
 L -19.6932,1.36394 L -19.6934,1.36407 L -19.6537,1.4149 L -19.5972,1.49516 L -19.5447,1.57811 L -19.4963,1.66353
 L -19.4522,1.75122 L -19.4124,1.84097 L -19.3771,1.93256 L -19.3463,2.02577 L -19.3202,2.12039 L -19.2987,2.21617
 L -19.2819,2.3129 L -19.2699,2.41032 L -19.2627,2.50822 L -19.2603,2.60635 L -19.2627,2.7045 L -19.27,2.80238
 L -19.282,2.89981 L -19.2988,2.99654 L -19.3095,3.04712 L -19.4703,3.75833 L -19.4943,3.85353 L -19.5229,3.94742
 L -19.5562,4.03979 L -19.5939,4.13043 L -19.636,4.21912 L -19.6824,4.30562 L -19.733,4.38976 L -19.7876,4.47128
 L -19.8462,4.55005 L -19.9086,4.62584 L -19.9746,4.69849 L -20.0441,4.76779 L -20.117,4.83362 L -20.1929,4.89578
 L -20.2719,4.95413 L -20.3536,5.00856 L -20.4378,5.0589 L -20.5245,5.10504 L -20.6133,5.1469 L -20.704,5.18433
 L -20.7965,5.21725 L -20.8905,5.24562 L -20.9857,5.26933 L -21.082,5.28835 L -21.1792,5.30261 L -21.2769,5.31209
 L -21.3749,5.31676 L -21.4731,5.31662 L -21.5711,5.31166 L -21.6331,5.30603 L -21.6497,5.30426 L -21.6624,5.3026
 L -21.6863,5.30003 L -22.5491,5.22928 L -22.5727,5.22794 L -23.4369,5.19955 L -23.4616,5.19936 L -24.3246,5.21341
 L -24.3495,5.21442 L -25.2102,5.27081 L -25.2348,5.27303 L -26.0915,5.37169 L -26.1153,5.37503 L -26.9651,5.51566
 L -26.9895,5.52031 L -27.8304,5.70251 L -27.8549,5.70845 L -28.6846,5.9317 L -28.7089,5.93887 L -29.526,6.20276
 L -29.5501,6.21121 L -30.3522,6.51497 L -30.3761,6.52469 L -31.1621,6.86784 L -31.1846,6.87833 L -31.9527,7.26019
 L -31.9744,7.27164 L -32.7222,7.69107 L -32.7436,7.70378 L -33.0695,7.90854 L -33.1116,7.93358 L -33.155,7.95656
 L -33.1995,7.97739 L -33.2449,7.996 L -33.2911,8.01237 L -33.3382,8.02646 L -33.3858,8.03821 L -33.434,8.04762
 L -33.4826,8.05464 L -33.5314,8.05928 L -33.5805,8.06152 z
M 33.5371,8.05966 L 33.4882,8.05531 L 33.4396,8.04855 L 33.3914,8.03943 L 33.3437,8.02794 L 33.2966,8.01413
 L 33.2502,7.99803 L 33.2047,7.97966 L 33.1601,7.95909 L 33.1166,7.93636 L 33.0695,7.90854 L 32.7436,7.70378
 L 32.7222,7.69107 L 31.9744,7.27164 L 31.9527,7.26019 L 31.1846,6.87833 L 31.1621,6.86784 L 30.3761,6.52469
 L 30.3522,6.51497 L 29.5501,6.21121 L 29.526,6.20276 L 28.7089,5.93887 L 28.6846,5.9317 L 27.8549,5.70845
 L 27.8304,5.70251 L 26.9895,5.52031 L 26.9651,5.51566 L 26.1153,5.37503 L 26.0915,5.37169 L 25.2348,5.27303
 L 25.2102,5.27081 L 24.3495,5.21442 L 24.3246,5.21341 L 23.4616,5.19936 L 23.4369,5.19955 L 22.5727,5.22794
 L 22.5491,5.22928 L 21.6863,5.30003 L 21.6624,5.3026 L 21.6497,5.30426 L 21.6331,5.30603 L 21.5352,5.31403
 L 21.4371,5.31723 L 21.339,5.3156 L 21.241,5.30917 L 21.1435,5.29793 L 21.0467,5.28192 L 20.9507,5.26118
 L 20.8559,5.23576 L 20.7624,5.20572 L 20.6706,5.17113 L 20.5805,5.13206 L 20.4925,5.08864 L 20.4067,5.04094
 L 20.3233,4.98909 L 20.2426,4.93321 L 20.1647,4.87344 L 20.0899,4.80992 L 20.0183,4.7428 L 19.95,4.67226
 L 19.8853,4.59843 L 19.8243,4.52153 L 19.7671,4.44173 L 19.7139,4.35922 L 19.6649,4.2742 L 19.62,4.18687
 L 19.5795,4.09746 L 19.5435,4.00615 L 19.5119,3.91319 L 19.485,3.8188 L 19.4703,3.75833 L 19.3095,3.04712
 L 19.2902,2.95087 L 19.2757,2.85379 L 19.2659,2.75612 L 19.261,2.65808 L 19.2608,2.55991 L 19.2655,2.46185
 L 19.275,2.36415 L 19.2892,2.26703 L 19.3083,2.17072 L 19.332,2.07547 L 19.3603,1.98149 L 19.3933,1.88901
 L 19.4307,1.79826 L 19.4725,1.70946 L 19.5187,1.62282 L 19.569,1.53854 L 19.6235,1.45685 L 19.6818,1.37791
 L 19.7021,1.35246 L 19.743,1.30013 L 19.7723,1.26056 L 19.8045,1.21495 L 19.8322,1.17352 L 19.8623,1.12589
 L 19.8874,1.08401 L 19.9152,1.03497 L 19.9384,0.991638 L 19.9639,0.940933 L 19.9847,0.896942 L 20.0076,0.845184
 L 20.0265,0.799713 L 20.0467,0.747238 L 20.0632,0.70105 L 20.081,0.647339 L 20.0952,0.60051 L 20.1102,0.546036
 L 20.1222,0.498352 L 20.1345,0.443466 L 20.1441,0.395203 L 20.1537,0.339783 L 20.161,0.29097 L 20.1679,0.235138
 L 20.1727,0.186325 L 20.1768,0.13002 L 20.1792,0.0807343 L 20.1806,0.024826 L 20.1806,-0.024826 L 20.1792,-0.0807343
 L 20.1768,-0.13002 L 20.1727,-0.186325 L 20.1679,-0.235138 L 20.161,-0.29097 L 20.1537,-0.339783 L 20.1441,-0.395203
 L 20.1345,-0.443466 L 20.1222,-0.498352 L 20.1102,-0.546036 L 20.0952,-0.60051 L 20.081,-0.647339 L 20.0632,-0.70105
 L 20.0467,-0.747238 L 20.0265,-0.799713 L 20.0076,-0.845184 L 19.9847,-0.896942 L 19.9639,-0.940933 L 19.9384,-0.991638
 L 19.9152,-1.03497 L 19.8874,-1.08401 L 19.8623,-1.12589 L 19.8322,-1.17352 L 19.8045,-1.21495 L 19.7723,-1.26056
 L 19.743,-1.30013 L 19.6932,-1.36394 L 19.6934,-1.36407 L 19.6537,-1.4149 L 19.5972,-1.49516 L 19.5447,-1.57811
 L 19.4963,-1.66353 L 19.4522,-1.75122 L 19.4124,-1.84097 L 19.3771,-1.93256 L 19.3463,-2.02577 L 19.3202,-2.12039
 L 19.2987,-2.21617 L 19.2819,-2.3129 L 19.2699,-2.41032 L 19.2627,-2.50822 L 19.2603,-2.60635 L 19.2627,-2.7045
 L 19.27,-2.80238 L 19.282,-2.89981 L 19.2988,-2.99654 L 19.3095,-3.04712 L 19.4703,-3.75833 L 19.4943,-3.85353
 L 19.5229,-3.94742 L 19.5562,-4.03979 L 19.5939,-4.13043 L 19.636,-4.21912 L 19.6824,-4.30562 L 19.733,-4.38976
 L 19.7876,-4.47128 L 19.8462,-4.55005 L 19.9086,-4.62584 L 19.9746,-4.69849 L 20.0441,-4.76779 L 20.117,-4.83362
 L 20.1929,-4.89578 L 20.2719,-4.95413 L 20.3536,-5.00856 L 20.4378,-5.0589 L 20.5245,-5.10504 L 20.6133,-5.1469
 L 20.704,-5.18433 L 20.7965,-5.21725 L 20.8905,-5.24562 L 20.9857,-5.26933 L 21.082,-5.28835 L 21.1792,-5.30261
 L 21.2769,-5.31209 L 21.3749,-5.31676 L 21.4731,-5.31662 L 21.5711,-5.31166 L 21.6331,-5.30603 L 21.6497,-5.30426
 L 21.6624,-5.3026 L 21.6863,-5.30003 L 22.5491,-5.22928 L 22.5727,-5.22794 L 23.4369,-5.19955 L 23.4616,-5.19936
 L 24.3246,-5.21341 L 24.3495,-5.21442 L 25.2102,-5.27081 L 25.2348,-5.27303 L 26.0915,-5.37169 L 26.1153,-5.37503
 L 26.9651,-5.51566 L 26.9895,-5.52031 L 27.8304,-5.70251 L 27.8549,-5.70845 L 28.6846,-5.9317 L 28.7089,-5.93887
 L 29.526,-6.20276 L 29.5501,-6.21121 L 30.3522,-6.51497 L 30.3761,-6.52469 L 31.1621,-6.86784 L 31.1846,-6.87833
 L 31.9527,-7.26019 L 31.9744,-7.27164 L 32.7222,-7.69107 L 32.7436,-7.70378 L 33.0695,-7.90849 L 33.1116,-7.93358
 L 33.155,-7.95656 L 33.1995,-7.97739 L 33.2449,-7.996 L 33.2911,-8.01237 L 33.3382,-8.02646 L 33.3858,-8.03821
 L 33.434,-8.04762 L 33.4826,-8.05464 L 33.5314,-8.05928 L 33.5805,-8.06152 L 33.6295,-8.06134 L 33.6786,-8.05876
 L 33.7274,-8.05377 L 33.7759,-8.0464 L 33.824,-8.03665 L 33.8716,-8.02455 L 33.9185,-8.01015 L 33.9647,-7.99344
 L 34.0099,-7.9745 L 34.0542,-7.95335 L 34.0974,-7.93007 L 34.1395,-7.90468 L 34.1802,-7.87726 L 34.2195,-7.84789
 L 34.2573,-7.81662 L 34.2936,-7.78352 L 34.3281,-7.74869 L 34.361,-7.7122 L 34.392,-7.67415 L 34.4211,-7.63463
 L 34.4482,-7.59372 L 34.4733,-7.55153 L 34.4963,-7.50816 L 34.5171,-7.46371 L 34.5357,-7.4183 L 34.5521,-7.37204
 L 34.5662,-7.32501 L 34.5779,-7.27736 L 34.5873,-7.22919 L 34.5943,-7.1806 L 34.599,-7.13174 L 34.6012,-7.08272
 L 34.601,-7.03363 L 34.5985,-6.98462 L 34.5935,-6.93579 L 34.5851,-6.88165 L 34.1904,-4.72552 L 34.1872,-4.7072
 L 34.1836,-4.68301 L 34.1807,-4.65926 L 33.919,-2.37473 L 33.917,-2.35376 L 33.916,-2.33983 L 33.915,-2.32249
 L 33.8259,-0.036438 L 33.8257,-0.0296173 L 33.8253,-0.0124969 L 33.8253,0.0124969 L 33.8257,0.0296173 L 33.8259,0.036438
 L 33.915,2.32249 L 33.916,2.33983 L 33.917,2.35376 L 33.919,2.37473 L 34.1807,4.65926 L 34.1836,4.68301
 L 34.1872,4.7072 L 34.1908,4.72787 L 34.5851,6.88165 L 34.5927,6.93013 L 34.598,6.97893 L 34.6009,7.02792
 L 34.6013,7.07701 L 34.5994,7.12605 L 34.595,7.17494 L 34.5883,7.22356 L 34.5791,7.27179 L 34.5676,7.3195
 L 34.5538,7.36661 L 34.5377,7.41296 L 34.5194,7.45848 L 34.4988,7.50305 L 34.4761,7.54655 L 34.4512,7.58888
 L 34.4243,7.62994 L 34.3955,7.66963 L 34.3647,7.70786 L 34.332,7.74454 L 34.2977,7.77956 L 34.2616,7.81285
 L 34.224,7.84435 L 34.1848,7.87395 L 34.1442,7.9016 L 34.1024,7.92722 L 34.0593,7.95076 L 34.0151,7.97215
 L 33.97,7.99135 L 33.9239,8.00832 L 33.8771,8.02299 L 33.8296,8.03537 L 33.7815,8.04539 L 33.733,8.05304
 L 33.6842,8.0583 L 33.6353,8.06117 L 33.5862,8.06161 z
M 17.8313,1.00529 L 17.639,0.946976 L 17.4618,0.852249 L 17.3064,0.724777 L 17.179,0.569458 L 17.0842,0.392242
 L 17.0259,0.199966 L 17.0062,-0 L 17.0259,-0.199966 L 17.0842,-0.392242 L 17.179,-0.569458 L 17.3064,-0.724777
 L 17.4618,-0.852249 L 17.639,-0.946976 L 17.8313,-1.00529 L 18.0312,-1.02499 L 18.2312,-1.00529 L 18.4235,-0.946976
 L 18.6007,-0.852249 L 18.756,-0.724777 L 18.8835,-0.569458 L 18.9782,-0.392242 L 19.0365,-0.199966 L 19.0562,-0
 L 19.0365,0.199966 L 18.9782,0.392242 L 18.8835,0.569458 L 18.756,0.724777 L 18.6007,0.852249 L 18.4235,0.946976
 L 18.2312,1.00529 L 18.0312,1.02499 z
M -18.2312,1.00529 L -18.4235,0.946976 L -18.6007,0.852249 L -18.756,0.724777 L -18.8835,0.569458 L -18.9782,0.392242
 L -19.0365,0.199966 L -19.0562,-0 L -19.0365,-0.199966 L -18.9782,-0.392242 L -18.8835,-0.569458 L -18.756,-0.724777
 L -18.6007,-0.852249 L -18.4235,-0.946976 L -18.2312,-1.00529 L -18.0312,-1.02499 L -17.8313,-1.00529 L -17.639,-0.946976
 L -17.4618,-0.852249 L -17.3064,-0.724777 L -17.179,-0.569458 L -17.0842,-0.392242 L -17.0259,-0.199966 L -17.0062,-0
 L -17.0259,0.199966 L -17.0842,0.392242 L -17.179,0.569458 L -17.3064,0.724777 L -17.4618,0.852249 L -17.639,0.946976
 L -17.8313,1.00529 L -18.0312,1.02499 z
M -23.7906,39.4611 L -24.5983,39.4015 L -25.402,39.3024 L -26.2,39.1639 L -26.9901,38.9865 L -27.7707,38.7705
 L -28.5396,38.5164 L -29.2952,38.225 L -30.0356,37.8968 L -30.759,37.5327 L -31.4637,37.1335 L -32.1479,36.7002
 L -32.81,36.2339 L -33.4485,35.7356 L -34.0617,35.2066 L -34.6482,34.6482 L -35.2066,34.0617 L -35.7356,33.4485
 L -36.2339,32.81 L -36.7002,32.1479 L -37.1335,31.4637 L -37.5327,30.759 L -37.8968,30.0356 L -38.225,29.2952
 L -38.5164,28.5396 L -38.7705,27.7707 L -38.9865,26.9901 L -39.1639,26.2 L -39.3024,25.402 L -39.4015,24.5983
 L -39.4611,23.7906 L -39.481,22.981 L -39.4611,22.1713 L -39.4015,21.3637 L -39.3024,20.5599 L -39.1639,19.762
 L -38.9865,18.9718 L -38.7705,18.1913 L -38.5164,17.4223 L -38.225,16.6667 L -37.8968,15.9263 L -37.5327,15.2029
 L -37.1335,14.4983 L -36.7002,13.8141 L -36.2339,13.1519 L -35.7356,12.5135 L -35.2066,11.9002 L -34.6482,11.3137
 L -34.0617,10.7553 L -33.4485,10.2263 L -32.81,9.72804 L -32.1479,9.26172 L -31.4637,8.82845 L -30.759,8.42926
 L -30.0356,8.06514 L -29.2952,7.73695 L -28.5396,7.44548 L -27.7707,7.19145 L -26.9901,6.97545 L -26.2,6.798
 L -25.402,6.65955 L -24.5983,6.56041 L -23.7906,6.50084 L -22.981,6.48096 L -22.1713,6.50084 L -21.3637,6.56041
 L -20.5599,6.65955 L -19.762,6.798 L -18.9718,6.97545 L -18.1913,7.19145 L -17.4223,7.44548 L -16.6667,7.73695
 L -15.9263,8.06514 L -15.2029,8.42926 L -14.4983,8.82845 L -13.8141,9.26172 L -13.1519,9.72804 L -12.5135,10.2263
 L -11.9002,10.7553 L -11.3137,11.3137 L -10.7553,11.9002 L -10.2263,12.5135 L -9.72804,13.1519 L -9.26172,13.8141
 L -8.82845,14.4983 L -8.42926,15.2029 L -8.06514,15.9263 L -7.73695,16.6667 L -7.44548,17.4223 L -7.19145,18.1913
 L -6.97545,18.9718 L -6.798,19.762 L -6.65955,20.5599 L -6.56041,21.3637 L -6.50084,22.1713 L -6.48096,22.981
 L -6.50084,23.7906 L -6.56041,24.5983 L -6.65955,25.402 L -6.798,26.2 L -6.97545,26.9901 L -7.19145,27.7707
 L -7.44548,28.5396 L -7.73695,29.2952 L -8.06514,30.0356 L -8.42926,30.759 L -8.82845,31.4637 L -9.26172,32.1479
 L -9.72804,32.81 L -10.2263,33.4485 L -10.7553,34.0617 L -11.3137,34.6482 L -11.9002,35.2066 L -12.5135,35.7356
 L -13.1519,36.2339 L -13.8141,36.7002 L -14.4983,37.1335 L -15.2029,37.5327 L -15.9263,37.8968 L -16.6667,38.225
 L -17.4223,38.5164 L -18.1913,38.7705 L -18.9718,38.9865 L -19.762,39.1639 L -20.5599,39.3024 L -21.3637,39.4015
 L -22.1713,39.4611 L -22.981,39.481 z
M 22.1713,39.4611 L 21.3637,39.4015 L 20.5599,39.3024 L 19.762,39.1639 L 18.9718,38.9865 L 18.1913,38.7705
 L 17.4223,38.5164 L 16.6667,38.225 L 15.9263,37.8968 L 15.2029,37.5327 L 14.4983,37.1335 L 13.8141,36.7002
 L 13.1519,36.2339 L 12.5135,35.7356 L 11.9002,35.2066 L 11.3137,34.6482 L 10.7553,34.0617 L 10.2263,33.4485
 L 9.72804,32.81 L 9.26172,32.1479 L 8.82845,31.4637 L 8.42926,30.759 L 8.06514,30.0356 L 7.73695,29.2952
 L 7.44548,28.5396 L 7.19145,27.7707 L 6.97545,26.9901 L 6.798,26.2 L 6.65955,25.402 L 6.56041,24.5983
 L 6.50084,23.7906 L 6.48096,22.981 L 6.50084,22.1713 L 6.56041,21.3637 L 6.65955,20.5599 L 6.798,19.762
 L 6.97545,18.9718 L 7.19145,18.1913 L 7.44548,17.4223 L 7.73695,16.6667 L 8.06514,15.9263 L 8.42926,15.2029
 L 8.82845,14.4983 L 9.26172,13.8141 L 9.72804,13.1519 L 10.2263,12.5135 L 10.7553,11.9002 L 11.3137,11.3137
 L 11.9002,10.7553 L 12.5135,10.2263 L 13.1519,9.72804 L 13.8141,9.26172 L 14.4983,8.82845 L 15.2029,8.42926
 L 15.9263,8.06514 L 16.6667,7.73695 L 17.4223,7.44548 L 18.1913,7.19145 L 18.9718,6.97545 L 19.762,6.798
 L 20.5599,6.65955 L 21.3637,6.56041 L 22.1713,6.50084 L 22.981,6.48096 L 23.7906,6.50084 L 24.5983,6.56041
 L 25.402,6.65955 L 26.2,6.798 L 26.9901,6.97545 L 27.7707,7.19145 L 28.5396,7.44548 L 29.2952,7.73695
 L 30.0356,8.06514 L 30.759,8.42926 L 31.4637,8.82845 L 32.1479,9.26172 L 32.81,9.72804 L 33.4485,10.2263
 L 34.0617,10.7553 L 34.6482,11.3137 L 35.2066,11.9002 L 35.7356,12.5135 L 36.2339,13.1519 L 36.7002,13.8141
 L 37.1335,14.4983 L 37.5327,15.2029 L 37.8968,15.9263 L 38.225,16.6667 L 38.5164,17.4223 L 38.7705,18.1913
 L 38.9865,18.9718 L 39.1639,19.762 L 39.3024,20.5599 L 39.4015,21.3637 L 39.4611,22.1713 L 39.481,22.981
 L 39.4611,23.7906 L 39.4015,24.5983 L 39.3024,25.402 L 39.1639,26.2 L 38.9865,26.9901 L 38.7705,27.7707
 L 38.5164,28.5396 L 38.225,29.2952 L 37.8968,30.0356 L 37.5327,30.759 L 37.1335,31.4637 L 36.7002,32.1479
 L 36.2339,32.81 L 35.7356,33.4485 L 35.2066,34.0617 L 34.6482,34.6482 L 34.0617,35.2066 L 33.4485,35.7356
 L 32.81,36.2339 L 32.1479,36.7002 L 31.4637,37.1335 L 30.759,37.5327 L 30.0356,37.8968 L 29.2952,38.225
 L 28.5396,38.5164 L 27.7707,38.7705 L 26.9901,38.9865 L 26.2,39.1639 L 25.402,39.3024 L 24.5983,39.4015
 L 23.7906,39.4611 L 22.981,39.481 z
M -0.199966,19.0365 L -0.392242,18.9782 L -0.569458,18.8835 L -0.724777,18.756 L -0.852249,18.6007 L -0.946976,18.4235
 L -1.00529,18.2312 L -1.02499,18.0312 L -1.00529,17.8313 L -0.946976,17.639 L -0.852249,17.4618 L -0.724777,17.3064
 L -0.569458,17.179 L -0.392242,17.0842 L -0.199966,17.0259 L 0,17.0062 L 0.199966,17.0259 L 0.392242,17.0842
 L 0.569458,17.179 L 0.724777,17.3064 L 0.852249,17.4618 L 0.946976,17.639 L 1.00529,17.8313 L 1.02499,18.0312
 L 1.00529,18.2312 L 0.946976,18.4235 L 0.852249,18.6007 L 0.724777,18.756 L 0.569458,18.8835 L 0.392242,18.9782
 L 0.199966,19.0365 L 0,19.0562 z
M -7.12605,34.5994 L -7.17494,34.595 L -7.22356,34.5883 L -7.27179,34.5791 L -7.3195,34.5676 L -7.36661,34.5538
 L -7.41296,34.5377 L -7.45848,34.5194 L -7.50305,34.4988 L -7.54655,34.4761 L -7.58888,34.4512 L -7.62994,34.4243
 L -7.66963,34.3955 L -7.70786,34.3647 L -7.74454,34.332 L -7.77956,34.2977 L -7.81285,34.2616 L -7.84435,34.224
 L -7.87395,34.1848 L -7.9016,34.1442 L -7.92722,34.1024 L -7.95076,34.0593 L -7.97215,34.0151 L -7.99135,33.97
 L -8.00832,33.9239 L -8.02299,33.8771 L -8.03537,33.8296 L -8.04539,33.7815 L -8.05304,33.733 L -8.0583,33.6842
 L -8.06117,33.6353 L -8.06161,33.5862 L -8.05966,33.5371 L -8.05531,33.4882 L -8.04855,33.4396 L -8.03943,33.3914
 L -8.02794,33.3437 L -8.01413,33.2966 L -7.99803,33.2502 L -7.97966,33.2047 L -7.95909,33.1601 L -7.93636,33.1166
 L -7.90849,33.0695 L -7.70378,32.7436 L -7.69107,32.7222 L -7.27164,31.9744 L -7.26019,31.9527 L -6.87833,31.1846
 L -6.86784,31.1621 L -6.52469,30.3761 L -6.51497,30.3522 L -6.21121,29.5501 L -6.20276,29.526 L -5.93887,28.7089
 L -5.9317,28.6846 L -5.70845,27.8549 L -5.70251,27.8304 L -5.52031,26.9895 L -5.51566,26.9651 L -5.37503,26.1153
 L -5.37169,26.0915 L -5.27303,25.2348 L -5.27081,25.2102 L -5.21442,24.3495 L -5.21341,24.3246 L -5.19936,23.4616
 L -5.19955,23.4369 L -5.22794,22.5727 L -5.22928,22.5491 L -5.30003,21.6863 L -5.3026,21.6624 L -5.30426,21.6497
 L -5.30603,21.6331 L -5.31403,21.5352 L -5.31723,21.4371 L -5.3156,21.339 L -5.30917,21.241 L -5.29793,21.1435
 L -5.28192,21.0467 L -5.26118,20.9507 L -5.23576,20.8559 L -5.20572,20.7624 L -5.17113,20.6706 L -5.13206,20.5805
 L -5.08864,20.4925 L -5.04094,20.4067 L -4.98909,20.3233 L -4.93321,20.2426 L -4.87344,20.1647 L -4.80992,20.0899
 L -4.7428,20.0183 L -4.67226,19.95 L -4.59843,19.8853 L -4.52153,19.8243 L -4.44173,19.7671 L -4.35922,19.7139
 L -4.2742,19.6649 L -4.18687,19.62 L -4.09746,19.5795 L -4.00615,19.5435 L -3.91319,19.5119 L -3.8188,19.485
 L -3.75833,19.4703 L -3.04712,19.3095 L -2.95087,19.2902 L -2.85379,19.2757 L -2.75612,19.2659 L -2.65808,19.261
 L -2.55991,19.2608 L -2.46185,19.2655 L -2.36415,19.275 L -2.26703,19.2892 L -2.17072,19.3083 L -2.07547,19.332
 L -1.98149,19.3603 L -1.88901,19.3933 L -1.79826,19.4307 L -1.70946,19.4725 L -1.62282,19.5187 L -1.53854,19.569
 L -1.45685,19.6235 L -1.37791,19.6818 L -1.35246,19.7021 L -1.30013,19.743 L -1.26056,19.7723 L -1.21495,19.8045
 L -1.17352,19.8322 L -1.12589,19.8623 L -1.08401,19.8874 L -1.03497,19.9152 L -0.991638,19.9384 L -0.940933,19.9639
 L -0.896942,19.9847 L -0.845184,20.0076 L -0.799713,20.0265 L -0.747238,20.0467 L -0.70105,20.0632 L -0.647339,20.081
 L -0.60051,20.0952 L -0.546036,20.1102 L -0.498352,20.1222 L -0.443466,20.1345 L -0.395203,20.1441 L -0.339783,20.1537
 L -0.29097,20.161 L -0.235138,20.1679 L -0.186325,20.1727 L -0.13002,20.1768 L -0.0807343,20.1792 L -0.024826,20.1806
 L 0.024826,20.1806 L 0.0807343,20.1792 L 0.13002,20.1768 L 0.186325,20.1727 L 0.235138,20.1679 L 0.29097,20.161
 L 0.339783,20.1537 L 0.395203,20.1441 L 0.443466,20.1345 L 0.498352,20.1222 L 0.546036,20.1102 L 0.60051,20.0952
 L 0.647339,20.081 L 0.70105,20.0632 L 0.747238,20.0467 L 0.799713,20.0265 L 0.845184,20.0076 L 0.896942,19.9847
 L 0.940933,19.9639 L 0.991638,19.9384 L 1.03497,19.9152 L 1.08401,19.8874 L 1.12589,19.8623 L 1.17352,19.8322
 L 1.21495,19.8045 L 1.26056,19.7723 L 1.30013,19.743 L 1.36394,19.6932 L 1.36407,19.6934 L 1.4149,19.6537
 L 1.49516,19.5972 L 1.57811,19.5447 L 1.66353,19.4963 L 1.75122,19.4522 L 1.84097,19.4124 L 1.93256,19.3771
 L 2.02577,19.3463 L 2.12039,19.3202 L 2.21617,19.2987 L 2.3129,19.2819 L 2.41032,19.2699 L 2.50822,19.2627
 L 2.60635,19.2603 L 2.7045,19.2627 L 2.80238,19.27 L 2.89981,19.282 L 2.99654,19.2988 L 3.04712,19.3095
 L 3.75833,19.4703 L 3.85353,19.4943 L 3.94742,19.5229 L 4.03979,19.5562 L 4.13043,19.5939 L 4.21912,19.636
 L 4.30562,19.6824 L 4.38976,19.733 L 4.47128,19.7876 L 4.55005,19.8462 L 4.62584,19.9086 L 4.69849,19.9746
 L 4.76779,20.0441 L 4.83362,20.117 L 4.89578,20.1929 L 4.95413,20.2719 L 5.00856,20.3536 L 5.0589,20.4378
 L 5.10504,20.5245 L 5.1469,20.6133 L 5.18433,20.704 L 5.21725,20.7965 L 5.24562,20.8905 L 5.26933,20.9857
 L 5.28835,21.082 L 5.30261,21.1792 L 5.31209,21.2769 L 5.31676,21.3749 L 5.31662,21.4731 L 5.31166,21.5711
 L 5.30603,21.6331 L 5.30426,21.6497 L 5.3026,21.6624 L 5.30003,21.6863 L 5.22928,22.5491 L 5.22794,22.5727
 L 5.19955,23.4369 L 5.19936,23.4616 L 5.21341,24.3246 L 5.21442,24.3495 L 5.27081,25.2102 L 5.27303,25.2348
 L 5.37169,26.0915 L 5.37503,26.1153 L 5.51566,26.9651 L 5.52031,26.9895 L 5.70251,27.8304 L 5.70845,27.8549
 L 5.9317,28.6846 L 5.93887,28.7089 L 6.20276,29.526 L 6.21121,29.5501 L 6.51497,30.3522 L 6.52469,30.3761
 L 6.86784,31.1621 L 6.87833,31.1846 L 7.26019,31.9527 L 7.27164,31.9744 L 7.69107,32.7222 L 7.70378,32.7436
 L 7.90849,33.0695 L 7.93358,33.1116 L 7.95656,33.155 L 7.97739,33.1995 L 7.996,33.2449 L 8.01237,33.2911
 L 8.02646,33.3382 L 8.03821,33.3858 L 8.04762,33.434 L 8.05464,33.4826 L 8.05928,33.5314 L 8.06152,33.5805
 L 8.06134,33.6295 L 8.05876,33.6786 L 8.05377,33.7274 L 8.0464,33.7759 L 8.03665,33.824 L 8.02455,33.8716
 L 8.01015,33.9185 L 7.99344,33.9647 L 7.9745,34.0099 L 7.95335,34.0542 L 7.93007,34.0974 L 7.90468,34.1395
 L 7.87726,34.1802 L 7.84789,34.2195 L 7.81662,34.2573 L 7.78352,34.2936 L 7.74869,34.3281 L 7.7122,34.361
 L 7.67415,34.392 L 7.63463,34.4211 L 7.59372,34.4482 L 7.55153,34.4733 L 7.50816,34.4963 L 7.46371,34.5171
 L 7.4183,34.5357 L 7.37204,34.5521 L 7.32501,34.5662 L 7.27736,34.5779 L 7.22919,34.5873 L 7.1806,34.5943
 L 7.13174,34.599 L 7.08272,34.6012 L 7.03363,34.601 L 6.98462,34.5985 L 6.93579,34.5935 L 6.88165,34.5851
 L 4.72552,34.1904 L 4.7072,34.1872 L 4.68301,34.1836 L 4.65926,34.1807 L 2.37473,33.919 L 2.35376,33.917
 L 2.33983,33.916 L 2.32249,33.915 L 0.036438,33.8259 L 0.0296173,33.8257 L 0.0124969,33.8253 L -0.0124969,33.8253
 L -0.0296173,33.8257 L -0.036438,33.8259 L -2.32249,33.915 L -2.33983,33.916 L -2.35376,33.917 L -2.37473,33.919
 L -4.65926,34.1807 L -4.68301,34.1836 L -4.7072,34.1872 L -4.72787,34.1908 L -6.88165,34.5851 L -6.93013,34.5927
 L -6.97893,34.598 L -7.02792,34.6009 L -7.07701,34.6013 z
" stroke="black" fill="lightgray" stroke-width="0.5"/>
</svg>
